<?xml version="1.0" standalone="no"?>
<!DOCTYPE svg PUBLIC "-//W3C//DTD SVG 1.1//EN" "http://www.w3.org/Graphics/SVG/1.1/DTD/svg11.dtd" >
<svg>
<metadata>
Created by FontForge 20120731 at Sun Nov  9 11:29:45 2014
 By Orthosie Webhosting
Typeface (c) (your company). 2014. All Rights Reserved
</metadata>
<defs>
<font id="plate" horiz-adv-x="969" >
  <font-face 
    font-family="plate"
    font-weight="400"
    font-stretch="normal"
    units-per-em="2048"
    panose-1="2 0 5 0 0 0 0 0 0 0"
    ascent="1638"
    descent="-410"
    x-height="926"
    cap-height="1113"
    bbox="-96 -290 2955 1438"
    underline-thickness="150"
    underline-position="-142"
    unicode-range="U+001D-02DB"
  />
<missing-glyph horiz-adv-x="0" 
 />
    <glyph glyph-name=".notdef" horiz-adv-x="0" 
 />
    <glyph glyph-name=".notdef" horiz-adv-x="0" 
 />
    <glyph glyph-name="space" unicode=" " horiz-adv-x="508" 
 />
    <glyph glyph-name="space" unicode="&#xa0;" horiz-adv-x="508" 
 />
    <glyph glyph-name="exclam" unicode="!" horiz-adv-x="635" 
d="M57 1430h578v-95h-435q-107 2 -107 -83v-1070q-2 -98 82 -100h460v-78h-578q-57 0 -57 57v1312q0 57 57 57z" />
    <glyph glyph-name="quotedbl" unicode="&#x22;" horiz-adv-x="637" 
d="M136 1223h458v-258h-458v258zM258 342v136h60q18 0 27.5 -4t15 -13t5.5 -20q0 -15 -9 -25t-29 -12q7 -4 11 -7q8 -7 15 -18l23 -37h-22l-18 28q-8 12 -13 18.5t-9 9.5t-8 4h-10h-21v-60h-18zM276 418h38q13 0 20 2.5t10.5 8t3.5 12.5q0 9 -7 15.5t-22 6.5h-43v-45z
M208 162v136h60q18 0 27.5 -4t15 -13t5.5 -20q0 -15 -9 -25t-29 -12q7 -4 11 -7q8 -7 15 -18l23 -37h-22l-18 28q-8 12 -13 18.5t-9 9.5t-8 4h-10h-21v-60h-18zM226 238h38q13 0 20 2.5t10.5 8t3.5 12.5q0 9 -7 15.5t-22 6.5h-43v-45zM166 342v138h18v-138h-18zM166 162v138
h18v-138h-18zM335 163l52 135h19l55 -135h-20l-16 41h-56l-15 -41h-19zM374 219h45l-14 37q-6 17 -9 28q-3 -13 -7 -26zM479 163v134h18l70 -105v105h17v-134h-18l-70 105v-105h-17zM211 343v28h28v-28h-28zM391 343v28h28v-28h-28z" />
    <glyph glyph-name="numbersign" unicode="#" horiz-adv-x="637" 
d="M165 1335h472v-1253h-487q-43 19 -64 61v1137q31 57 79 55z" />
    <glyph glyph-name="dollar" unicode="$" horiz-adv-x="637" 
d="M595 1230v-85q0 -1 -1 -1h-4q-1 0 -1 2h-18q0 -2 -1 -2t-1 2h-19q0 -2 -1 -2t-1 2h-19q0 -2 -1 -2t-1 2h-18q0 -2 -1 -2t-1 2h-19q0 -2 -1 -2t-1 2h-18q0 -2 -1 -2t-1 2h-19q0 -2 -1 -2t-1 2h-18q0 -2 -1 -2t-1 2h-19q0 -2 -1 -2t-1 2h-18q0 -2 -1 -2t-1 2h-19
q0 -2 -1 -2t-1 2h-18q0 -2 -1 -2t-1 2h-19q0 -2 -1 -2t-1 2h-19q0 -2 -1 -2t-1 2h-18q0 -2 -1 -2t-1 2h-19q0 -2 -1 -2t-1 2h-18q0 -2 -1 -2t-1 2h-19q0 -2 -1 -2t-1 2h-18q0 -2 -1 -2t-1 2h-19q0 -2 -1 -2t-1 2h-19q0 -2 -1 -2t-1 2h-18q0 -2 -1 -2h-2q-1 0 -1 1v85h460z
M139 1159v-2h27v2h-27zM168 1159v-3q0 -1 -1 -1h-7v-6h6v2h-3q-1 0 -1 1t1 1h4q1 0 1 -1v-3h10v10h-2v-7q0 -1 -1 -1v0q-1 0 -1 1v7h-2v-7q0 -1 -1 -1v0q-1 0 -1 1v7h-2zM180 1159v-1q0 -1 1 -1h26v2h-27zM209 1159v-3q0 -1 -1 -1h-7v-6h6v2h-3q-1 0 -1 1t1 1h4q1 0 1 -1v-3
h10v10h-2v-7q0 -1 -1 -1t-1 1v7h-2v-7q0 -1 -1 -1t-1 1v7h-2zM221 1159v-2h27v2h-27zM250 1159v-3q0 -1 -1 -1h-7v-6h6v2h-3q-1 0 -1 1t1 1h4q1 0 1 -1v-3h10v10h-2v-7q0 -1 -1 -1t-1 1v7h-2v-7q0 -1 -1 -1t-1 1v7h-2zM262 1159v-1l1 -1h25q1 0 1 1v1h-27zM291 1159v-3
q0 -1 -1 -1h-7v-6h6v2h-3q-1 0 -1 1t1 1h4q1 0 1 -1v-3h11v10h-2v-7q0 -1 -1 -1t-1 1v7h-3v-7q0 -1 -1 -1t-1 1v7h-2zM304 1159v-2h26v2h-26zM332 1159v-3q0 -1 -1 -1h-7v-6h6v2h-3q-1 0 -1 1t1 1h4q1 0 1 -1v-3h11v10h-3v-7q0 -1 -1 -1t-1 1v7h-2v-7q0 -1 -1 -1t-1 1v7h-2z
M345 1159v-1q0 -1 1 -1h25q1 0 1 1v1h-27zM374 1159v-3q0 -1 -1 -1h-8v-6h7v2h-4q-1 0 -1 1l1 1h5q1 0 1 -1v-3h10v10h-2v-7q0 -1 -1 -1t-1 1v7h-2v-7q0 -1 -1 -1t-1 1v7h-2zM386 1159v-2h26v2h-26zM414 1159v-3q0 -1 -1 -1h-7v-6h6v2h-3q-1 0 -1 1t1 1h4q1 0 1 -1v-3h11v10
h-2v-7q0 -1 -1 -1t-1 1v7h-2v-7q0 -1 -1 -1t-1 1v7h-3zM427 1159v-2h26q1 0 1 1v1h-27zM456 1159v-3q0 -1 -1 -1h-7v-6h6v2h-3q-1 0 -1 1t1 1h4q1 0 1 -1v-3h10v10h-2v-7q0 -1 -1 -1v0q-1 0 -1 1v7h-2v-7q0 -1 -1 -1t-1 1v7h-2zM468 1159v-2h27v2h-27zM497 1159v-3
q0 -1 -1 -1h-8v-6h7v2h-3q-1 0 -1 1t1 1h4q1 0 1 -1v-3h10v10h-2v-7q0 -1 -1 -1t-1 1v7h-2v-7q0 -1 -1 -1t-1 1v7h-2zM509 1159v-2h27v2h-27zM538 1159v-3q0 -1 -1 -1h-7v-6h6v2h-3q-1 0 -1 1t1 1h4q1 0 1 -1v-3h10v10h-2v-7q0 -1 -1 -1v0q-1 0 -1 1v7h-2v-7q0 -1 -1 -1v0
q-1 0 -1 1v7h-2zM551 1159v-2h26v2h-26zM579 1159v-3q0 -1 -1 -1h-7v-6h6v2h-3q-1 0 -1 1t1 1h4q1 0 1 -1v-3h10v10h-2v-7q0 -1 -1 -1t-1 1v7h-2v-7q0 -1 -1 -1t-1 1v7h-2zM139 1155v-6h2v3q0 1 1 1h4q1 0 1 -1v-3h11v6h-6v-2h3q1 0 1 -1t-1 -1h-4q-1 0 -1 1v3h-11z
M180 1155v-6h2v3q0 1 1 1h4q1 0 1 -1v-3h11v6h-6v-1q0 -1 4 -2v0q0 -1 -1 -1h-5q-1 0 -1 1v3h-10zM221 1155v-6h3v3q0 1 1 1h4q1 0 1 -1v-3h10v6h-6v-2h3q1 0 1 -1t-1 -1h-4q-1 0 -1 1v3h-11zM262 1155v-6h2v3l1 1h5q1 0 1 -1v-3h10v6h-6v-1q0 -1 4 -2v0q0 -1 -1 -1h-4
q-1 0 -1 1v3h-11zM304 1155v-6h2v3q0 1 1 1h4q1 0 1 -1v-3h10v6h-6v-2h3q1 0 1 -1t-1 -1h-4q-1 0 -1 1v3h-10zM345 1155v-6h2v3q0 1 1 1h4q1 0 1 -1v-3h10v6h-6v-2h3q1 0 1 -1t-1 -1h-4q-1 0 -1 1v3h-10zM386 1155v-6h2v3q0 1 1 1h4q1 0 1 -1v-3h10v6h-6v-2h3q1 0 1 -1
t-1 -1h-4q-1 0 -1 1v3h-10zM427 1155v-6h2v3q0 1 1 1h4q1 0 1 -1v-3h11v6h-7v-2h3q1 0 1 -1t-1 -1h-4q-1 0 -1 1v3h-10zM468 1155v-6h2v3q0 1 1 1h4q1 0 1 -1v-3h10v6h-6v-1q0 -1 4 -2v0q0 -1 -1 -1h-4q-1 0 -1 1v3h-10zM509 1155v-6h2v3q0 1 1 1h4q1 0 1 -1v-3h11v6h-6v-2
h3q1 0 1 -1t-1 -1h-4q-1 0 -1 1v3h-11zM551 1155v-6h1v3q0 1 1 1h4q1 0 1 -1v-3h11v6h-7v-1q0 -1 5 -2v0q0 -1 -1 -1h-5q-1 0 -1 1v3h-9zM143 1151v-2h2v2h-2zM184 1151v-2h2v2h-2zM226 1151v-2h2v2h-2zM266 1151v-2h3v2h-3zM308 1151v-2h2v2h-2zM349 1151v-2h2v2h-2z
M390 1151v-2h2v2h-2zM431 1151v-2h2v2h-2zM472 1151v-2h2v2h-2zM513 1151v-2h2v2h-2zM554 1151v-2h2v2h-2z" />
    <glyph glyph-name="percent" unicode="%" horiz-adv-x="633" 
d="M136 1050h2q1 0 1 -2h19q0 2 1 2t1 -2h19q0 2 1 2t1 -2h18q0 2 1 2t1 -2h18q0 2 1 2t1 -2h19q0 2 1 2t1 -2h19q0 2 1 2t1 -2h18q0 2 1 2t1 -2h19q0 2 1 2t1 -2h18q0 2 1 2t1 -2h19q0 2 1 2t1 -2h18q0 2 1 2t1 -2h19q0 2 1 2t1 -2h19q0 2 1 2t1 -2h18q0 2 1 2t1 -2h19
q0 2 1 2t1 -2h18q0 2 1 2t1 -2h18q0 2 1 2t1 -2h19q0 2 1 2t1 -2h19q0 2 1 2t1 -2h18q0 2 1 2t1 -2h19q0 2 1 2t1 -2h18q0 2 1 2h4q1 0 1 -1v-85h-460v85q0 1 1 1zM139 1045v-2h27v2h-27zM168 1045v-3q0 -1 -1 -1h-7v-6h6v2h-4q-1 0 -1 1v1l1 1h5l1 -1v-4h10v10h-2v-7
q0 -1 -1 -1v0q-1 0 -1 1v7h-2v-7q0 -1 -1 -1v0q-1 0 -1 1v7h-2zM181 1045v-2h26v2h-26zM209 1045v-3q0 -1 -1 -1h-7v-6h6v2h-3q-1 0 -1 1v1q0 1 1 1h4l1 -1v-4h10v10h-2v-7q0 -1 -1 -1t-1 1v7h-2v-7q0 -1 -1 -1t-1 1v7h-2zM221 1045v-2h27v2h-27zM250 1045v-3q0 -1 -1 -1h-7
v-6h6v2h-3q-1 0 -1 1v1q0 1 1 1h4l1 -1v-4h10v10h-2v-7q0 -1 -1 -1t-1 1v7h-1v-7q0 -1 -1 -1h-1q-1 0 -1 1v7h-2zM262 1045v-1l1 -1h25q1 0 1 1v1h-27zM291 1045v-3q0 -1 -1 -1h-7v-6h6v2h-3q-1 0 -1 1v1q0 1 1 1h4l1 -1v-4h11v10h-2v-7q0 -1 -1 -1t-1 1v7h-3v-7q0 -1 -1 -1
t-1 1v7h-2zM304 1045v-2h26v2h-26zM332 1045v-3q0 -1 -1 -1h-7v-6h6v2h-3q-1 0 -1 1v1q0 1 1 1h4l1 -1v-4h11v10h-3v-7q0 -1 -1 -1t-1 1v7h-2v-7q0 -1 -1 -1t-1 1v7h-2zM345 1045v-1q0 -1 1 -1h25q1 0 1 1v1h-27zM374 1045v-3q0 -1 -1 -1h-8v-6h7v2h-4q-1 0 -1 1v1l1 1h5
l1 -1v-4h9v10h-1v-7q0 -1 -1 -1t-1 1v7h-2v-7q0 -1 -1 -1t-1 1v7h-2zM386 1045v-2h26v2h-26zM414 1045v-3q0 -1 -1 -1h-7v-6h6v2h-3q-1 0 -1 1v1q0 1 1 1h4l1 -1v-4h11v10h-2v-7q0 -1 -1 -1t-1 1v7h-2v-7q0 -1 -1 -1t-1 1v7h-3zM427 1045v-2h26q1 0 1 1v1h-27zM456 1045v-3
q0 -1 -1 -1h-7v-6h6v2h-3q-1 0 -1 1v1q0 1 1 1h4l1 -1v-4h10v10h-2v-7q0 -1 -1 -1v0q-1 0 -1 1v7h-2v-7q0 -1 -1 -1h-1q-1 0 -1 1v7h-1zM468 1045v-2h27v2h-27zM497 1045v-3q0 -1 -1 -1h-8v-6h7v2h-3q-1 0 -1 1v1q0 1 1 1h4l1 -1v-4h10v10h-2v-7q0 -1 -1 -1t-1 1v7h-2v-7
q0 -1 -1 -1t-1 1v7h-2zM509 1045v-2h27v2h-27zM538 1045v-3q0 -1 -1 -1h-7v-6h6v2h-4q-1 0 -1 1v1l1 1h5l1 -1v-4h10v10h-2v-7q0 -1 -1 -1v0q-1 0 -1 1v7h-2v-7q0 -1 -1 -1v0q-1 0 -1 1v7h-2zM551 1045v-2h26v2h-26zM579 1045v-3q0 -1 -1 -1h-7v-6h6v2h-3q-1 0 -1 1v1
q0 1 1 1h4l1 -1v-4h10v10h-2v-7q0 -1 -1 -1t-1 1v7h-2v-7q0 -1 -1 -1t-1 1v7h-2zM139 1041v-6h2v4q0 1 1 1h4l1 -1v-4h11v6h-6v-1h3l1 -1v-1q0 -1 -1 -1h-4q-1 0 -1 1v3h-11zM181 1041v-6h1v4q0 1 1 1h4l1 -1v-4h11v6h-6v-1h3l1 -1v-1q0 -1 -1 -1h-5q-1 0 -1 1v3h-9z
M221 1041v-6h3v4q0 1 1 1h4l1 -1v-4h10v6h-6v-1h3l1 -1v-1q0 -1 -1 -1h-4q-1 0 -1 1v3h-11zM262 1041v-6h2v4l1 1h5l1 -1v-4h10v6h-6v-1h3l1 -1v-1q0 -1 -1 -1h-4q-1 0 -1 1v3h-11zM304 1041v-6h2v4q0 1 1 1h4l1 -1v-4h10v6h-6v-1h3l1 -1v-1q0 -1 -1 -1h-4q-1 0 -1 1v3h-10z
M345 1041v-6h2v4q0 1 1 1h4l1 -1v-4h10v6h-6v-1h3l1 -1v-1q0 -1 -1 -1h-4q-1 0 -1 1v3h-10zM386 1041v-6h2v4q0 1 1 1h4l1 -1v-4h10v6h-6v-1h4l1 -1v-1q0 -1 -1 -1h-5q-1 0 -1 1v3h-10zM427 1041v-6h2v4q0 1 1 1h4l1 -1v-4h11v6h-7v-1h3l1 -1v-1q0 -1 -1 -1h-4q-1 0 -1 1v3
h-10zM468 1041v-6h2v4q0 1 1 1h5l1 -1v-4h9v6h-6v-1h3l1 -1v-1q0 -1 -1 -1h-4q-1 0 -1 1v3h-10zM509 1041v-6h2v4q0 1 1 1h4l1 -1v-4h11v6h-6v-1h3l1 -1v-1q0 -1 -1 -1h-4q-1 0 -1 1v3h-11zM551 1041v-6h1v4q0 1 1 1h4l1 -1v-4h11v6h-7v-1h4l1 -1v-1q0 -1 -1 -1h-5
q-1 0 -1 1v3h-9zM143 1037v-2h2v2h-2zM184 1037v-2h2v2h-2zM226 1037v-2h2v2h-2zM266 1037v-2h3v2h-3zM308 1037v-2h1v2h-1zM349 1037v-2h2v2h-2zM390 1037v-2h2v2h-2zM431 1037v-2h2v2h-2zM472 1037v-2h2v2h-2zM513 1037v-2h2v2h-2zM554 1037v-2h2v2h-2zM385 1104
q7 -15 -3 -31q12 7 11 23q-1 15 -17 21q5 -5 9 -13zM356 1118q-3 2 -1 6q3 -7 8 -2q4 -5 7 2q2 -4 -1 -6q-4 -2 -6 1q-3 -3 -7 -1zM360 1066q-6 -2 -15 1q9 0 12 2q-15 8 -15 25q1 17 10 22q-4 -6 -5 -14q-2 -17 13 -29l-1 24v18q1 0 4 3q2 -3 3 -3v-18l-1 -24q15 12 13 29
q-1 8 -5 14q9 -5 10 -22q0 -17 -15 -25q4 -2 12 -2q-9 -3 -15 -1l-2 -3zM340 1104q-7 -15 3 -31q-12 7 -11 23q1 15 17 21q-5 -5 -9 -13z" />
    <glyph glyph-name="ampersand" unicode="&#x26;" horiz-adv-x="252" 
d="M93 182v1048q-3 104 -93 106v94h252v-95q-83 -1 -94 -105v-1048q0 -25 11 -54t83 -47v-77h-252v80q67 9 80 41t13 57z" />
    <glyph glyph-name="quotesingle" unicode="'" horiz-adv-x="679" 
d="M685 1430v-95h-685v95h685zM685 82v-78h-685v78h685z" />
    <glyph glyph-name="parenleft" unicode="(" horiz-adv-x="965" 
d="M967 82v-78h-967v78h967zM967 1430v-95h-967v95h967z" />
    <glyph glyph-name="parenright" unicode=")" horiz-adv-x="1161" 
d="M50 1250h35q10 -1 10 -9v-120q8 -19 34 -19h119q45 0 45 34v105q2 9 10 9h36q9 -1 9 -9v-139q0 -55 -50 -55h-208q-50 0 -50 40v154q2 9 10 9zM432 1250h35q10 -1 10 -9v-182q0 -11 -10 -12h-34q-10 1 -11 12v182q0 9 10 9zM690 1250h44q3 -43 34 -44h141q31 0 39 44h35
q12 -1 12 -15v-66q-1 -18 -22 -18h-203q-27 0 -35 -20v-49q0 -35 -35 -35h-134q-15 5 -15 30q4 25 15 25h75q39 0 39 39v100q2 9 10 9zM1072 1250h35q9 -1 10 -9v-181q0 -12 -10 -13h-35q-10 1 -10 13v181q2 9 10 9zM173 1241h31q10 -2 10 -10v-30q0 -10 -10 -10h-32
q-7 1 -8 9v32q0 9 9 9zM848 1102h31q10 -2 10 -10v-30q0 -10 -10 -10h-32q-7 1 -8 9v32q0 9 9 9zM937 1102h31q10 -2 10 -10v-30q0 -10 -10 -10h-32q-7 1 -8 9v32q0 9 9 9zM1161 82v-78h-1161v78h1161zM1161 1430v-95h-1161v95h1161z" />
    <glyph glyph-name="asterisk" unicode="*" horiz-adv-x="2954" 
d="M2955 82v-78h-2955v78h2955zM2954 1430v-95h-2954v95h2954z" />
    <glyph glyph-name="plus" unicode="+" horiz-adv-x="175" 
d="M117 1430q57 0 57 -57v-1312q0 -57 -57 -57h-117v78h13q68 18 68 79v1113q1 61 -81 61v95h117z" />
    <glyph glyph-name="comma" unicode="," horiz-adv-x="2858" 
d="M43 1437h2772q43 -6 43 -44v-1627q0 -46 -68 -46h-2722q-68 0 -68 46v1627q5 44 43 44zM122 1369q-54 -3 -54 -59v-1448q0 -62 71 -71h2574q77 0 77 81v1416q0 81 -84 81h-2584z" />
    <glyph glyph-name="hyphen" unicode="-" horiz-adv-x="620" 
d="M116 1296h458v-258h-458v258zM237 761v136h60q18 0 27.5 -4t15 -13t5.5 -20q0 -15 -9 -25t-29 -12q7 -4 11 -7q8 -7 15 -18l23 -37h-22l-18 28q-8 12 -13 18.5t-9 9.5t-8 4h-10h-21v-60h-18zM255 837h38q13 0 20 2.5t10.5 8t3.5 12.5q0 9 -7 15.5t-22 6.5h-43v-45z
M187 581v136h60q18 0 27.5 -4t15 -13t5.5 -20q0 -15 -9 -25t-29 -12q7 -4 11 -7q8 -7 15 -18l23 -37h-22l-18 28q-8 12 -13 18.5t-9 9.5t-8 4h-10h-21v-60h-18zM205 657h38q13 0 20 2.5t10.5 8t3.5 12.5q0 9 -7 15.5t-22 6.5h-43v-45zM145 761v138h18v-138h-18zM145 581v138
h18v-138h-18zM314 582l52 135h19l55 -135h-20l-16 41h-56l-15 -41h-19zM353 638h45l-14 37q-6 17 -9 28q-3 -13 -7 -26zM458 582v134h18l70 -105v105h17v-134h-18l-70 105v-105h-17zM190 762v28h28v-28h-28zM370 762v28h28v-28h-28z" />
    <glyph glyph-name="hyphen" unicode="&#xad;" horiz-adv-x="620" 
d="M116 1296h458v-258h-458v258zM237 761v136h60q18 0 27.5 -4t15 -13t5.5 -20q0 -15 -9 -25t-29 -12q7 -4 11 -7q8 -7 15 -18l23 -37h-22l-18 28q-8 12 -13 18.5t-9 9.5t-8 4h-10h-21v-60h-18zM255 837h38q13 0 20 2.5t10.5 8t3.5 12.5q0 9 -7 15.5t-22 6.5h-43v-45z
M187 581v136h60q18 0 27.5 -4t15 -13t5.5 -20q0 -15 -9 -25t-29 -12q7 -4 11 -7q8 -7 15 -18l23 -37h-22l-18 28q-8 12 -13 18.5t-9 9.5t-8 4h-10h-21v-60h-18zM205 657h38q13 0 20 2.5t10.5 8t3.5 12.5q0 9 -7 15.5t-22 6.5h-43v-45zM145 761v138h18v-138h-18zM145 581v138
h18v-138h-18zM314 582l52 135h19l55 -135h-20l-16 41h-56l-15 -41h-19zM353 638h45l-14 37q-6 17 -9 28q-3 -13 -7 -26zM458 582v134h18l70 -105v105h17v-134h-18l-70 105v-105h-17zM190 762v28h28v-28h-28zM370 762v28h28v-28h-28z" />
    <glyph glyph-name="period" unicode="." horiz-adv-x="619" 
d="M68 1325q2 46 56 44h495v-857h-551v813z" />
    <glyph glyph-name="zero" unicode="0" horiz-adv-x="684" 
d="M483 612l-131 -131l-132 131l132 132z" />
    <glyph glyph-name="one" unicode="1" horiz-adv-x="684" 
d="M447 339h-105q0 393 -161 606l79 174q105 -124 149 -332q38 -176 38 -448z" />
    <glyph glyph-name="two" unicode="2" horiz-adv-x="687" 
d="M574 1123q0 -355 -222 -355q36 -167 36 -427h-103q0 387 -160 601l78 173q59 -104 90 -135q34 -33 84 -33q63 0 86 40q18 31 18 98z" />
    <glyph glyph-name="three" unicode="3" horiz-adv-x="683" 
d="M624 1116q2 -30 2 -58q0 -98 -34 -172q-44 -99 -130 -99q-42 0 -75 29q-45 -55 -106 -55q37 -172 37 -425h-104q0 387 -159 598l78 172q63 -110 84 -134q27 -33 66 -33q46 0 58 45q5 19 5 83l70 37q0 -54 12 -98q18 -67 58 -67q57 0 57 93q0 22 -3 47z" />
    <glyph glyph-name="four" unicode="4" horiz-adv-x="683" 
d="M623 892q-76 -137 -242 -137q-35 0 -70 8q36 -164 36 -427h-102q0 387 -160 600l77 172q55 -65 91 -132q2 51 40 99q48 62 127 62q80 0 125 -60l-29 -60q-41 23 -90 23q-39 0 -66 -21q-28 -22 -28 -60q0 -63 101 -63q92 0 156 56z" />
    <glyph glyph-name="five" unicode="5" horiz-adv-x="679" 
d="M608 566q0 -93 -49 -158q-46 -58 -101 -58q-69 0 -105 44q-47 -64 -119 -64q-78 0 -116 61q-33 50 -33 132q0 173 175 399l-36 36l72 154q130 -100 216 -241q96 -157 96 -305zM507 573q0 64 -62 159q-53 81 -118 140q-144 -190 -144 -288q0 -33 17 -59q19 -29 51 -29
q61 0 94 53q7 -18 31 -34.5t44 -16.5q87 0 87 75z" />
    <glyph glyph-name="six" unicode="6" horiz-adv-x="679" 
d="M610 885l-43 -182q-146 -72 -240 -170q-70 -74 -141 -200l-85 34q74 176 196 308q-171 20 -171 172q0 67 80 160q86 101 174 101q38 0 80.5 -20.5t68.5 -49.5l-48 -79q-67 29 -107 29q-55 0 -107 -41q-47 -38 -47 -67q0 -32 63 -51q52 -16 110 -16q39 0 97 18
q67 20 120 54z" />
    <glyph glyph-name="seven" unicode="7" horiz-adv-x="679" 
d="M643 933q-73 -69 -145 -224q-91 -196 -91 -378h-111q0 184 -94 378q-66 138 -143 222l59 178q93 -116 148 -236q51 -110 86 -263q74 338 230 501q19 -34 61 -178z" />
    <glyph glyph-name="eight" unicode="8" horiz-adv-x="679" 
d="M640 519l-58 -173q-163 206 -227 487q-73 -327 -224 -490q-19 35 -60 175q71 66 141 218q88 191 88 368h109q0 -177 92 -368q64 -134 139 -217z" />
    <glyph glyph-name="nine" unicode="9" horiz-adv-x="679" 
d="M568 492l-89 -154q-125 142 -125 349q-239 0 -239 172q0 65 58 160q67 107 135 107q100 0 131 -103q17 -56 17 -188q0 -197 64 -284q2 -2 48 -59zM351 843q0 11 1 34t1 34q0 43 -12 61q-16 22 -57 22q-32 0 -54 -37q-20 -33 -20 -66q0 -27 48 -41q31 -9 69 -9q14 0 24 2z
" />
    <glyph glyph-name="colon" unicode=":" horiz-adv-x="620" 
d="M575 1300v-85q0 -1 -1 -1h-4q-1 0 -1 2h-18q0 -2 -1 -2t-1 2h-19q0 -2 -1 -2t-1 2h-19q0 -2 -1 -2t-1 2h-18q0 -2 -1 -2t-1 2h-19q0 -2 -1 -2t-1 2h-18q0 -2 -1 -2t-1 2h-19q0 -2 -1 -2t-1 2h-18q0 -2 -1 -2t-1 2h-19q0 -2 -1 -2t-1 2h-18q0 -2 -1 -2t-1 2h-19
q0 -2 -1 -2t-1 2h-18q0 -2 -1 -2t-1 2h-19q0 -2 -1 -2t-1 2h-19q0 -2 -1 -2t-1 2h-18q0 -2 -1 -2t-1 2h-19q0 -2 -1 -2t-1 2h-18q0 -2 -1 -2t-1 2h-19q0 -2 -1 -2t-1 2h-18q0 -2 -1 -2t-1 2h-19q0 -2 -1 -2t-1 2h-19q0 -2 -1 -2t-1 2h-18q0 -2 -1 -2h-2q-1 0 -1 1v85h460z
M119 1229v-2h27v2h-27zM148 1229v-3q0 -1 -1 -1h-7v-6h6v2h-3q-1 0 -1 1t1 1h4q1 0 1 -1v-3h10v10h-2v-7q0 -1 -1 -1v0q-1 0 -1 1v7h-2v-7q0 -1 -1 -1v0q-1 0 -1 1v7h-2zM160 1229v-1q0 -1 1 -1h26v2h-27zM189 1229v-3q0 -1 -1 -1h-7v-6h6v2h-3q-1 0 -1 1t1 1h4q1 0 1 -1v-3
h10v10h-2v-7q0 -1 -1 -1t-1 1v7h-2v-7q0 -1 -1 -1t-1 1v7h-2zM201 1229v-2h27v2h-27zM230 1229v-3q0 -1 -1 -1h-7v-6h6v2h-3q-1 0 -1 1t1 1h4q1 0 1 -1v-3h10v10h-2v-7q0 -1 -1 -1t-1 1v7h-2v-7q0 -1 -1 -1t-1 1v7h-2zM242 1229v-1l1 -1h25q1 0 1 1v1h-27zM271 1229v-3
q0 -1 -1 -1h-7v-6h6v2h-3q-1 0 -1 1t1 1h4q1 0 1 -1v-3h11v10h-2v-7q0 -1 -1 -1t-1 1v7h-3v-7q0 -1 -1 -1t-1 1v7h-2zM284 1229v-2h26v2h-26zM312 1229v-3q0 -1 -1 -1h-7v-6h6v2h-3q-1 0 -1 1t1 1h4q1 0 1 -1v-3h11v10h-3v-7q0 -1 -1 -1t-1 1v7h-2v-7q0 -1 -1 -1t-1 1v7h-2z
M325 1229v-1q0 -1 1 -1h25q1 0 1 1v1h-27zM354 1229v-3q0 -1 -1 -1h-8v-6h7v2h-4q-1 0 -1 1l1 1h5q1 0 1 -1v-3h10v10h-2v-7q0 -1 -1 -1t-1 1v7h-2v-7q0 -1 -1 -1t-1 1v7h-2zM366 1229v-2h26v2h-26zM394 1229v-3q0 -1 -1 -1h-7v-6h6v2h-3q-1 0 -1 1t1 1h4q1 0 1 -1v-3h11v10
h-2v-7q0 -1 -1 -1t-1 1v7h-2v-7q0 -1 -1 -1t-1 1v7h-3zM407 1229v-2h26q1 0 1 1v1h-27zM436 1229v-3q0 -1 -1 -1h-7v-6h6v2h-3q-1 0 -1 1t1 1h4q1 0 1 -1v-3h10v10h-2v-7q0 -1 -1 -1v0q-1 0 -1 1v7h-2v-7q0 -1 -1 -1t-1 1v7h-2zM448 1229v-2h27v2h-27zM477 1229v-3
q0 -1 -1 -1h-8v-6h7v2h-3q-1 0 -1 1t1 1h4q1 0 1 -1v-3h10v10h-2v-7q0 -1 -1 -1t-1 1v7h-2v-7q0 -1 -1 -1t-1 1v7h-2zM489 1229v-2h27v2h-27zM518 1229v-3q0 -1 -1 -1h-7v-6h6v2h-3q-1 0 -1 1t1 1h4q1 0 1 -1v-3h10v10h-2v-7q0 -1 -1 -1v0q-1 0 -1 1v7h-2v-7q0 -1 -1 -1v0
q-1 0 -1 1v7h-2zM531 1229v-2h26v2h-26zM559 1229v-3q0 -1 -1 -1h-7v-6h6v2h-3q-1 0 -1 1t1 1h4q1 0 1 -1v-3h10v10h-2v-7q0 -1 -1 -1t-1 1v7h-2v-7q0 -1 -1 -1t-1 1v7h-2zM119 1225v-6h2v3q0 1 1 1h4q1 0 1 -1v-3h11v6h-6v-2h3q1 0 1 -1t-1 -1h-4q-1 0 -1 1v3h-11z
M160 1225v-6h2v3q0 1 1 1h4q1 0 1 -1v-3h11v6h-6v-1q0 -1 4 -2v0q0 -1 -1 -1h-5q-1 0 -1 1v3h-10zM201 1225v-6h3v3q0 1 1 1h4q1 0 1 -1v-3h10v6h-6v-2h3q1 0 1 -1t-1 -1h-4q-1 0 -1 1v3h-11zM242 1225v-6h2v3l1 1h5q1 0 1 -1v-3h10v6h-6v-1q0 -1 4 -2v0q0 -1 -1 -1h-4
q-1 0 -1 1v3h-11zM284 1225v-6h2v3q0 1 1 1h4q1 0 1 -1v-3h10v6h-6v-2h3q1 0 1 -1t-1 -1h-4q-1 0 -1 1v3h-10zM325 1225v-6h2v3q0 1 1 1h4q1 0 1 -1v-3h10v6h-6v-2h3q1 0 1 -1t-1 -1h-4q-1 0 -1 1v3h-10zM366 1225v-6h2v3q0 1 1 1h4q1 0 1 -1v-3h10v6h-6v-2h3q1 0 1 -1
t-1 -1h-4q-1 0 -1 1v3h-10zM407 1225v-6h2v3q0 1 1 1h4q1 0 1 -1v-3h11v6h-7v-2h3q1 0 1 -1t-1 -1h-4q-1 0 -1 1v3h-10zM448 1225v-6h2v3q0 1 1 1h4q1 0 1 -1v-3h10v6h-6v-1q0 -1 4 -2v0q0 -1 -1 -1h-4q-1 0 -1 1v3h-10zM489 1225v-6h2v3q0 1 1 1h4q1 0 1 -1v-3h11v6h-6v-2
h3q1 0 1 -1t-1 -1h-4q-1 0 -1 1v3h-11zM531 1225v-6h1v3q0 1 1 1h4q1 0 1 -1v-3h11v6h-7v-1q0 -1 5 -2v0q0 -1 -1 -1h-5q-1 0 -1 1v3h-9zM123 1221v-2h2v2h-2zM164 1221v-2h2v2h-2zM206 1221v-2h2v2h-2zM246 1221v-2h3v2h-3zM288 1221v-2h2v2h-2zM329 1221v-2h2v2h-2z
M370 1221v-2h2v2h-2zM411 1221v-2h2v2h-2zM452 1221v-2h2v2h-2zM493 1221v-2h2v2h-2zM534 1221v-2h2v2h-2z" />
    <glyph glyph-name="semicolon" unicode=";" horiz-adv-x="620" 
d="M115 1120h2q1 0 1 -2h19q0 2 1 2t1 -2h19q0 2 1 2t1 -2h18q0 2 1 2t1 -2h18q0 2 1 2t1 -2h19q0 2 1 2t1 -2h19q0 2 1 2t1 -2h18q0 2 1 2t1 -2h19q0 2 1 2t1 -2h18q0 2 1 2t1 -2h19q0 2 1 2t1 -2h18q0 2 1 2t1 -2h19q0 2 1 2t1 -2h19q0 2 1 2t1 -2h18q0 2 1 2t1 -2h19
q0 2 1 2t1 -2h18q0 2 1 2t1 -2h18q0 2 1 2t1 -2h19q0 2 1 2t1 -2h19q0 2 1 2t1 -2h18q0 2 1 2t1 -2h19q0 2 1 2t1 -2h18q0 2 1 2h4q1 0 1 -1v-85h-460v85q0 1 1 1zM118 1115v-2h27v2h-27zM147 1115v-3q0 -1 -1 -1h-7v-6h6v2h-4q-1 0 -1 1v1l1 1h5l1 -1v-4h10v10h-2v-7
q0 -1 -1 -1v0q-1 0 -1 1v7h-2v-7q0 -1 -1 -1v0q-1 0 -1 1v7h-2zM160 1115v-2h26v2h-26zM188 1115v-3q0 -1 -1 -1h-7v-6h6v2h-3q-1 0 -1 1v1q0 1 1 1h4l1 -1v-4h10v10h-2v-7q0 -1 -1 -1t-1 1v7h-2v-7q0 -1 -1 -1t-1 1v7h-2zM200 1115v-2h27v2h-27zM229 1115v-3q0 -1 -1 -1h-7
v-6h6v2h-3q-1 0 -1 1v1q0 1 1 1h4l1 -1v-4h10v10h-2v-7q0 -1 -1 -1t-1 1v7h-1v-7q0 -1 -1 -1h-1q-1 0 -1 1v7h-2zM241 1115v-1l1 -1h25q1 0 1 1v1h-27zM270 1115v-3q0 -1 -1 -1h-7v-6h6v2h-3q-1 0 -1 1v1q0 1 1 1h4l1 -1v-4h11v10h-2v-7q0 -1 -1 -1t-1 1v7h-3v-7q0 -1 -1 -1
t-1 1v7h-2zM283 1115v-2h26v2h-26zM311 1115v-3q0 -1 -1 -1h-7v-6h6v2h-3q-1 0 -1 1v1q0 1 1 1h4l1 -1v-4h11v10h-3v-7q0 -1 -1 -1t-1 1v7h-2v-7q0 -1 -1 -1t-1 1v7h-2zM324 1115v-1q0 -1 1 -1h25q1 0 1 1v1h-27zM353 1115v-3q0 -1 -1 -1h-8v-6h7v2h-4q-1 0 -1 1v1l1 1h5
l1 -1v-4h9v10h-1v-7q0 -1 -1 -1t-1 1v7h-2v-7q0 -1 -1 -1t-1 1v7h-2zM365 1115v-2h26v2h-26zM393 1115v-3q0 -1 -1 -1h-7v-6h6v2h-3q-1 0 -1 1v1q0 1 1 1h4l1 -1v-4h11v10h-2v-7q0 -1 -1 -1t-1 1v7h-2v-7q0 -1 -1 -1t-1 1v7h-3zM406 1115v-2h26q1 0 1 1v1h-27zM435 1115v-3
q0 -1 -1 -1h-7v-6h6v2h-3q-1 0 -1 1v1q0 1 1 1h4l1 -1v-4h10v10h-2v-7q0 -1 -1 -1v0q-1 0 -1 1v7h-2v-7q0 -1 -1 -1h-1q-1 0 -1 1v7h-1zM447 1115v-2h27v2h-27zM476 1115v-3q0 -1 -1 -1h-8v-6h7v2h-3q-1 0 -1 1v1q0 1 1 1h4l1 -1v-4h10v10h-2v-7q0 -1 -1 -1t-1 1v7h-2v-7
q0 -1 -1 -1t-1 1v7h-2zM488 1115v-2h27v2h-27zM517 1115v-3q0 -1 -1 -1h-7v-6h6v2h-4q-1 0 -1 1v1l1 1h5l1 -1v-4h10v10h-2v-7q0 -1 -1 -1v0q-1 0 -1 1v7h-2v-7q0 -1 -1 -1v0q-1 0 -1 1v7h-2zM530 1115v-2h26v2h-26zM558 1115v-3q0 -1 -1 -1h-7v-6h6v2h-3q-1 0 -1 1v1
q0 1 1 1h4l1 -1v-4h10v10h-2v-7q0 -1 -1 -1t-1 1v7h-2v-7q0 -1 -1 -1t-1 1v7h-2zM118 1111v-6h2v4q0 1 1 1h4l1 -1v-4h11v6h-6v-1h3l1 -1v-1q0 -1 -1 -1h-4q-1 0 -1 1v3h-11zM160 1111v-6h1v4q0 1 1 1h4l1 -1v-4h11v6h-6v-1h3l1 -1v-1q0 -1 -1 -1h-5q-1 0 -1 1v3h-9z
M200 1111v-6h3v4q0 1 1 1h4l1 -1v-4h10v6h-6v-1h3l1 -1v-1q0 -1 -1 -1h-4q-1 0 -1 1v3h-11zM241 1111v-6h2v4l1 1h5l1 -1v-4h10v6h-6v-1h3l1 -1v-1q0 -1 -1 -1h-4q-1 0 -1 1v3h-11zM283 1111v-6h2v4q0 1 1 1h4l1 -1v-4h10v6h-6v-1h3l1 -1v-1q0 -1 -1 -1h-4q-1 0 -1 1v3h-10z
M324 1111v-6h2v4q0 1 1 1h4l1 -1v-4h10v6h-6v-1h3l1 -1v-1q0 -1 -1 -1h-4q-1 0 -1 1v3h-10zM365 1111v-6h2v4q0 1 1 1h4l1 -1v-4h10v6h-6v-1h4l1 -1v-1q0 -1 -1 -1h-5q-1 0 -1 1v3h-10zM406 1111v-6h2v4q0 1 1 1h4l1 -1v-4h11v6h-7v-1h3l1 -1v-1q0 -1 -1 -1h-4q-1 0 -1 1v3
h-10zM447 1111v-6h2v4q0 1 1 1h5l1 -1v-4h9v6h-6v-1h3l1 -1v-1q0 -1 -1 -1h-4q-1 0 -1 1v3h-10zM488 1111v-6h2v4q0 1 1 1h4l1 -1v-4h11v6h-6v-1h3l1 -1v-1q0 -1 -1 -1h-4q-1 0 -1 1v3h-11zM530 1111v-6h1v4q0 1 1 1h4l1 -1v-4h11v6h-7v-1h4l1 -1v-1q0 -1 -1 -1h-5
q-1 0 -1 1v3h-9zM122 1107v-2h2v2h-2zM163 1107v-2h2v2h-2zM205 1107v-2h2v2h-2zM245 1107v-2h3v2h-3zM287 1107v-2h1v2h-1zM328 1107v-2h2v2h-2zM369 1107v-2h2v2h-2zM410 1107v-2h2v2h-2zM451 1107v-2h2v2h-2zM492 1107v-2h2v2h-2zM533 1107v-2h2v2h-2zM364 1174
q7 -15 -3 -31q12 7 11 23q-1 15 -17 21q5 -5 9 -13zM335 1188q-3 2 -1 6q3 -7 8 -2q4 -5 7 2q2 -4 -1 -6q-4 -2 -6 1q-3 -3 -7 -1zM339 1136q-6 -2 -15 1q9 0 12 2q-15 8 -15 25q1 17 10 22q-4 -6 -5 -14q-2 -17 13 -29l-1 24v18q1 0 4 3q2 -3 3 -3v-18l-1 -24q15 12 13 29
q-1 8 -5 14q9 -5 10 -22q0 -17 -15 -25q4 -2 12 -2q-9 -3 -15 -1l-2 -3zM319 1174q-7 -15 3 -31q-12 7 -11 23q1 15 17 21q-5 -5 -9 -13z" />
    <glyph glyph-name="semicolon" unicode="&#x37e;" horiz-adv-x="620" 
d="M115 1120h2q1 0 1 -2h19q0 2 1 2t1 -2h19q0 2 1 2t1 -2h18q0 2 1 2t1 -2h18q0 2 1 2t1 -2h19q0 2 1 2t1 -2h19q0 2 1 2t1 -2h18q0 2 1 2t1 -2h19q0 2 1 2t1 -2h18q0 2 1 2t1 -2h19q0 2 1 2t1 -2h18q0 2 1 2t1 -2h19q0 2 1 2t1 -2h19q0 2 1 2t1 -2h18q0 2 1 2t1 -2h19
q0 2 1 2t1 -2h18q0 2 1 2t1 -2h18q0 2 1 2t1 -2h19q0 2 1 2t1 -2h19q0 2 1 2t1 -2h18q0 2 1 2t1 -2h19q0 2 1 2t1 -2h18q0 2 1 2h4q1 0 1 -1v-85h-460v85q0 1 1 1zM118 1115v-2h27v2h-27zM147 1115v-3q0 -1 -1 -1h-7v-6h6v2h-4q-1 0 -1 1v1l1 1h5l1 -1v-4h10v10h-2v-7
q0 -1 -1 -1v0q-1 0 -1 1v7h-2v-7q0 -1 -1 -1v0q-1 0 -1 1v7h-2zM160 1115v-2h26v2h-26zM188 1115v-3q0 -1 -1 -1h-7v-6h6v2h-3q-1 0 -1 1v1q0 1 1 1h4l1 -1v-4h10v10h-2v-7q0 -1 -1 -1t-1 1v7h-2v-7q0 -1 -1 -1t-1 1v7h-2zM200 1115v-2h27v2h-27zM229 1115v-3q0 -1 -1 -1h-7
v-6h6v2h-3q-1 0 -1 1v1q0 1 1 1h4l1 -1v-4h10v10h-2v-7q0 -1 -1 -1t-1 1v7h-1v-7q0 -1 -1 -1h-1q-1 0 -1 1v7h-2zM241 1115v-1l1 -1h25q1 0 1 1v1h-27zM270 1115v-3q0 -1 -1 -1h-7v-6h6v2h-3q-1 0 -1 1v1q0 1 1 1h4l1 -1v-4h11v10h-2v-7q0 -1 -1 -1t-1 1v7h-3v-7q0 -1 -1 -1
t-1 1v7h-2zM283 1115v-2h26v2h-26zM311 1115v-3q0 -1 -1 -1h-7v-6h6v2h-3q-1 0 -1 1v1q0 1 1 1h4l1 -1v-4h11v10h-3v-7q0 -1 -1 -1t-1 1v7h-2v-7q0 -1 -1 -1t-1 1v7h-2zM324 1115v-1q0 -1 1 -1h25q1 0 1 1v1h-27zM353 1115v-3q0 -1 -1 -1h-8v-6h7v2h-4q-1 0 -1 1v1l1 1h5
l1 -1v-4h9v10h-1v-7q0 -1 -1 -1t-1 1v7h-2v-7q0 -1 -1 -1t-1 1v7h-2zM365 1115v-2h26v2h-26zM393 1115v-3q0 -1 -1 -1h-7v-6h6v2h-3q-1 0 -1 1v1q0 1 1 1h4l1 -1v-4h11v10h-2v-7q0 -1 -1 -1t-1 1v7h-2v-7q0 -1 -1 -1t-1 1v7h-3zM406 1115v-2h26q1 0 1 1v1h-27zM435 1115v-3
q0 -1 -1 -1h-7v-6h6v2h-3q-1 0 -1 1v1q0 1 1 1h4l1 -1v-4h10v10h-2v-7q0 -1 -1 -1v0q-1 0 -1 1v7h-2v-7q0 -1 -1 -1h-1q-1 0 -1 1v7h-1zM447 1115v-2h27v2h-27zM476 1115v-3q0 -1 -1 -1h-8v-6h7v2h-3q-1 0 -1 1v1q0 1 1 1h4l1 -1v-4h10v10h-2v-7q0 -1 -1 -1t-1 1v7h-2v-7
q0 -1 -1 -1t-1 1v7h-2zM488 1115v-2h27v2h-27zM517 1115v-3q0 -1 -1 -1h-7v-6h6v2h-4q-1 0 -1 1v1l1 1h5l1 -1v-4h10v10h-2v-7q0 -1 -1 -1v0q-1 0 -1 1v7h-2v-7q0 -1 -1 -1v0q-1 0 -1 1v7h-2zM530 1115v-2h26v2h-26zM558 1115v-3q0 -1 -1 -1h-7v-6h6v2h-3q-1 0 -1 1v1
q0 1 1 1h4l1 -1v-4h10v10h-2v-7q0 -1 -1 -1t-1 1v7h-2v-7q0 -1 -1 -1t-1 1v7h-2zM118 1111v-6h2v4q0 1 1 1h4l1 -1v-4h11v6h-6v-1h3l1 -1v-1q0 -1 -1 -1h-4q-1 0 -1 1v3h-11zM160 1111v-6h1v4q0 1 1 1h4l1 -1v-4h11v6h-6v-1h3l1 -1v-1q0 -1 -1 -1h-5q-1 0 -1 1v3h-9z
M200 1111v-6h3v4q0 1 1 1h4l1 -1v-4h10v6h-6v-1h3l1 -1v-1q0 -1 -1 -1h-4q-1 0 -1 1v3h-11zM241 1111v-6h2v4l1 1h5l1 -1v-4h10v6h-6v-1h3l1 -1v-1q0 -1 -1 -1h-4q-1 0 -1 1v3h-11zM283 1111v-6h2v4q0 1 1 1h4l1 -1v-4h10v6h-6v-1h3l1 -1v-1q0 -1 -1 -1h-4q-1 0 -1 1v3h-10z
M324 1111v-6h2v4q0 1 1 1h4l1 -1v-4h10v6h-6v-1h3l1 -1v-1q0 -1 -1 -1h-4q-1 0 -1 1v3h-10zM365 1111v-6h2v4q0 1 1 1h4l1 -1v-4h10v6h-6v-1h4l1 -1v-1q0 -1 -1 -1h-5q-1 0 -1 1v3h-10zM406 1111v-6h2v4q0 1 1 1h4l1 -1v-4h11v6h-7v-1h3l1 -1v-1q0 -1 -1 -1h-4q-1 0 -1 1v3
h-10zM447 1111v-6h2v4q0 1 1 1h5l1 -1v-4h9v6h-6v-1h3l1 -1v-1q0 -1 -1 -1h-4q-1 0 -1 1v3h-10zM488 1111v-6h2v4q0 1 1 1h4l1 -1v-4h11v6h-6v-1h3l1 -1v-1q0 -1 -1 -1h-4q-1 0 -1 1v3h-11zM530 1111v-6h1v4q0 1 1 1h4l1 -1v-4h11v6h-7v-1h4l1 -1v-1q0 -1 -1 -1h-5
q-1 0 -1 1v3h-9zM122 1107v-2h2v2h-2zM163 1107v-2h2v2h-2zM205 1107v-2h2v2h-2zM245 1107v-2h3v2h-3zM287 1107v-2h1v2h-1zM328 1107v-2h2v2h-2zM369 1107v-2h2v2h-2zM410 1107v-2h2v2h-2zM451 1107v-2h2v2h-2zM492 1107v-2h2v2h-2zM533 1107v-2h2v2h-2zM364 1174
q7 -15 -3 -31q12 7 11 23q-1 15 -17 21q5 -5 9 -13zM335 1188q-3 2 -1 6q3 -7 8 -2q4 -5 7 2q2 -4 -1 -6q-4 -2 -6 1q-3 -3 -7 -1zM339 1136q-6 -2 -15 1q9 0 12 2q-15 8 -15 25q1 17 10 22q-4 -6 -5 -14q-2 -17 13 -29l-1 24v18q1 0 4 3q2 -3 3 -3v-18l-1 -24q15 12 13 29
q-1 8 -5 14q9 -5 10 -22q0 -17 -15 -25q4 -2 12 -2q-9 -3 -15 -1l-2 -3zM319 1174q-7 -15 3 -31q-12 7 -11 23q1 15 17 21q-5 -5 -9 -13z" />
    <glyph glyph-name="at" unicode="@" horiz-adv-x="2954" 
d="M2714 1044l-31 -40l-40 30l-29 -35l-43 30l32 40l39 -29l28 34zM459 1010l-33 -42l-43 32l-31 -38l-46 33l35 42l41 -31l30 37zM630 874q0 -128 -267 -128q-178 0 -178 104q0 32 23 77l45 -14q-13 -28 -13 -41q0 -25 19 -38q29 -18 107 -18h37q66 0 125 16q54 15 54 29
q0 11 -31 50l40 57q39 -41 39 -94zM565 261v217h82q22 0 33 -2q16 -3 27 -10.5t17.5 -21t6.5 -29.5q0 -27 -17.5 -46.5t-63.5 -19.5h-56v-88h-29zM594 375h56q28 0 39.5 10.5t11.5 28.5q0 14 -6.5 23.5t-18.5 13.5q-7 1 -27 1h-55v-77zM758 262v216h96q28 0 43.5 -6
t24.5 -20.5t9 -32.5q0 -23 -15 -39t-46 -20q11 -5 17 -11q12 -11 24 -28l37 -59h-36l-28 45q-13 19 -21 29.5t-14.5 14.5t-13.5 6q-4 1 -16 1h-33v-96h-28zM786 383h62q19 0 30.5 4t17 13t5.5 19q0 15 -11 25t-35 10h-69v-71zM949 367q0 57 30.5 89.5t79.5 32.5
q31 0 56.5 -15.5t39 -42.5t13.5 -62t-14 -62.5t-40 -41.5t-56 -14q-32 0 -57.5 15.5t-38.5 43t-13 57.5zM980 366q0 -41 22.5 -65t55.5 -24q35 0 57 24t22 69q0 28 -9.5 48.5t-28 32t-40.5 11.5q-33 0 -56 -22t-23 -74zM1389 367q0 57 30.5 89.5t79.5 32.5q31 0 56.5 -15.5
t39 -42.5t13.5 -62t-14 -62.5t-40 -41.5t-56 -14q-32 0 -57.5 15.5t-38.5 43t-13 57.5zM1420 366q0 -41 22.5 -65t55.5 -24q35 0 57 24t22 69q0 28 -9.5 48.5t-28 32t-40.5 11.5q-33 0 -56 -22t-23 -74zM1859 367q0 57 30.5 89.5t79.5 32.5q31 0 56.5 -15.5t39 -42.5
t13.5 -62t-14 -62.5t-40 -41.5t-56 -14q-32 0 -57.5 15.5t-38.5 43t-13 57.5zM1890 366q0 -41 22.5 -65t55.5 -24q35 0 57 24t22 69q0 28 -9.5 48.5t-28 32t-40.5 11.5q-33 0 -56 -22t-23 -74zM1262 261v191h-72v26h172v-26h-72v-191h-28zM2121 262v216h28v-191h107v-25
h-135zM1807 338l30 -8q-9 -36 -33.5 -55.5t-60.5 -19.5t-59 15t-35 43t-12 60q0 36 13.5 62t38.5 40t55 14q34 0 57 -17.5t32 -48.5l-29 -7q-8 25 -23 36t-38 11q-26 0 -43.5 -12.5t-24.5 -33.5t-7 -43q0 -29 8.5 -50.5t26 -32t38.5 -10.5q25 0 42.5 14t23.5 43zM1128 690
l-32 -44l-40 29l-24 -33l-50 34l32 44l42 -29l24 33zM908 877q0 10 -7.5 16.5t-17.5 6.5t-20.5 -8.5t-10.5 -18.5q0 -8 8.5 -14.5t16.5 -6.5q10 0 20.5 8t10.5 17zM929 1061l-40 -53l-54 36l40 53zM968 831v1h47q31 0 31 15q0 10 -14 27l-20 26l39 56q40 -40 40 -96
q0 -48 -30 -73q-26 -23 -73 -24v-2h-29q-53 0 -86 24q-13 -10 -35.5 -17t-38.5 -7h-31v2q-59 1 -80 40q-14 26 -16 90l-6 205l59 24v-237q0 -54 43 -54h54q-11 13 -11 38q0 34 30 66q28 30 54 30t41 -29q13 -23 13 -52q0 -34 -24 -53h43zM2322 975l29 40l38 -26l22 30
l45 -30l-30 -39l-39 25l-20 -30zM2344 1040l29 38l41 -27l-28 -39zM1393 763q-23 0 -34 11q-4 -52 -53 -97q-40 -38 -96 -60l-50 34q44 19 90 52q63 45 63 76q0 17 -32 60l47 50q21 -34 32 -45q14 -13 36 -13h846q25 0 25 29v22l42 14v-19q0 -46 38 -46q31 0 31 29v22l41 14
v-19q0 -46 33 -46q36 0 36 29v22l42 14v-19q0 -28 3 -34q5 -12 29 -12h44q31 0 31 16q0 9 -14 26l-20 26l39 55q39 -39 39 -95q0 -47 -29 -72q-26 -24 -74 -24h-18q-37 0 -57 31q-18 -31 -53 -31q-32 0 -48 31q-23 -31 -56 -31q-35 0 -50 31q-19 -31 -55 -31h-848z" />
    <glyph glyph-name="A" unicode="A" 
d="M864 1113q56 0 69 -96v-504q0 -94 -69 -142q-67 42 -78 60v4q23 37 23 83v416q0 8 -18 19h-14q-22 0 -46 -92v-334q-61 -142 -197 -142q-68 0 -155 46l-10 -5h-45q-146 -55 -248 -55q-18 7 -18 14v96q0 9 128 23q55 23 55 41q-18 38 -23 73q0 96 156 184
q133 -33 133 -133v-28q0 -29 -18 -105q44 -18 59 -18q73 14 73 64v275q0 180 216 251q7 5 27 5zM356 1058q61 -30 91 -69v-27q-48 -72 -82 -83q-54 21 -96 69q0 27 68 101zM319 623v-9q6 -41 41 -41h5q40 0 50 54q-9 31 -32 42h-18q-46 -9 -46 -46z" />
    <glyph glyph-name="B" unicode="B" 
d="M905 743q0 -240 -502 -240q-334 0 -334 196q0 59 43 145l85 -27q-25 -54 -25 -77q0 -48 37 -71q54 -34 200 -34h70q124 0 233 30q102 29 102 55q0 20 -58 93l75 107q74 -76 74 -177zM555 347l-75 -99l-102 68l75 100z" />
    <glyph glyph-name="C" unicode="C" horiz-adv-x="958" 
d="M932 799q0 -61 -32 -110q-37 -57 -95 -57q-79 0 -115 55q-30 -53 -85 -53t-70 20q0 -121 -74 -201q-76 -81 -197 -81t-181 76q-49 61 -49 157q0 77 41 160l79 -28q-28 -71 -28 -110q0 -68 41 -104q39 -34 107 -34q72 0 120 40q51 43 51 114q0 69 -50 136l88 82
q33 -65 36 -69q29 -41 69 -41q72 0 72 66v39l72 22v-51q0 -33 19 -55q20 -24 53 -24q44 0 44 42q0 38 -34 70l71 80q47 -52 47 -141z" />
    <glyph glyph-name="D" unicode="D" horiz-adv-x="965" 
d="M749 639q0 -125 -82 -192q-77 -63 -204 -63q-170 0 -243 94l71 131q65 -53 139 -53q94 0 126 6q83 17 83 75q0 39 -62 102q-70 72 -170 124l68 166q274 -167 274 -390z" />
    <glyph glyph-name="E" unicode="E" horiz-adv-x="965" 
d="M772 273q-86 -36 -199 -36q-156 0 -254 61q-117 73 -117 219q0 142 156 257q-77 54 -77 140q0 76 56.5 130t133.5 54q33 0 69.5 -16.5t55.5 -42.5l-29 -74q-46 25 -104 25q-29 0 -58 -14q-34 -16 -34 -42q0 -32 45 -57q40 -23 75 -23q15 0 85 16l92 22v-111
q-358 -75 -358 -256q0 -88 104 -129q74 -30 177 -30q88 0 142 20z" />
    <glyph glyph-name="F" unicode="F" horiz-adv-x="1079" 
 />
    <glyph glyph-name="G" unicode="G" horiz-adv-x="965" 
d="M803 586q0 -166 -83 -257q-86 -96 -250 -96q-136 0 -210 87q-64 74 -64 180q0 85 47 183l88 -32q-7 -13 -17 -55q-12 -47 -12 -71q0 -77 52 -119q47 -39 126 -39q101 0 166 40q81 49 75 143q-35 -30 -92 -30q-66 0 -99 41q-24 30 -24 71q0 59 33 124q41 81 106 81
q76 0 122 -92q36 -74 36 -159zM691 659q-4 22 -20 40q-18 21 -38 21q-16 0 -31 -16.5t-15 -32.5q0 -38 47 -39q45 -1 57 27zM757 1007l-63 -86l-78 55l-46 -63l-98 66l63 86l82 -57l45 64z" />
    <glyph glyph-name="H" unicode="H" horiz-adv-x="961" 
d="M784 575q0 -190 -127 -190q-29 0 -89 28q-29 14 -95 46q-37 -25 -184 -25h-88v160h94q-24 16 -24 71q0 90 100 175l-30 20l68 144q135 -90 239 -195q136 -139 136 -234zM686 557q-1 23 -29 60q-25 33 -48 50v-12q0 -24 -13 -52q-13 -31 -32 -41q7 -11 45.5 -33t49.5 -22
q30 0 27 50zM511 697q0 24 -21 44.5t-45 20.5q-22 0 -48 -26t-26 -48q0 -26 20.5 -45.5t46.5 -19.5q32 0 52.5 21.5t20.5 52.5z" />
    <glyph glyph-name="I" unicode="I" horiz-adv-x="657" 
 />
    <glyph glyph-name="J" unicode="J" horiz-adv-x="961" 
d="M802 313q-117 -43 -234 -43q-387 0 -387 306q0 104 91 198q71 76 180 126q-99 12 -122 12q-27 0 -54 -44q-55 23 -86 42q53 131 124 131q55 0 165 -12.5t165 -12.5q60 0 109 5l-15 -133q-138 0 -282 -88q-155 -96 -155 -209q0 -191 285 -191q96 0 181 24zM604 605
l-74 -98l-100 68l74 98z" />
    <glyph glyph-name="K" unicode="K" horiz-adv-x="961" 
d="M928 1049l-15 -119q-74 -17 -141 -34q-151 -40 -202 -64q-16 -7 -5 -16q95 -72 105 -82q83 -77 83 -141q0 -209 -393 -209q-310 0 -310 180q0 58 40 136l79 -25q-23 -49 -23 -71q0 -45 34 -68q51 -34 186 -34h21q81 0 155 10q126 18 126 59q0 40 -91 111q-99 77 -110 103
q1 27 12 62q12 41 23 47q128 67 426 155z" />
    <glyph glyph-name="L" unicode="L" horiz-adv-x="961" 
d="M762 637q0 -155 -68 -244q-76 -101 -227 -101q-112 0 -172 64t-60 177q0 84 43 173l88 -31q-31 -67 -31 -123q0 -129 147 -129q176 0 176 184v24l-20 436l124 46v-476z" />
    <glyph glyph-name="M" unicode="M" horiz-adv-x="961" 
d="M705 884q0 -36 -31 -90q-35 -60 -68 -60q-24 0 -71 6.5t-71 6.5q-40 0 -54 -17t-14 -58v-398h-92l-17 427q-2 56 23 102q29 52 81 61q0 60 27 113q32 64 87 64q56 0 126 -50q74 -54 74 -107zM597 868q4 21 -31 45q-31 21 -54 21q-20 0 -33 -15t-13 -35q0 -6 1 -13
q114 -12 104 -12q24 0 26 9z" />
    <glyph glyph-name="N" unicode="N" horiz-adv-x="965" 
d="M761 645q0 -141 -85 -223t-226 -82q-121 0 -188 66t-67 186q0 34 15 88t32 82l84 -30q-30 -61 -30 -116q0 -73 47 -111q42 -35 116 -35q84 0 135 39q56 43 56 123q0 73 -51 143l96 79q66 -78 66 -209zM543 931l-73 -97l-100 67l73 98z" />
    <glyph glyph-name="O" unicode="O" horiz-adv-x="1614" 
 />
    <glyph glyph-name="P" unicode="P" horiz-adv-x="965" 
d="M890 858q0 -236 -492 -236q-328 0 -328 192q0 58 43 142l83 -25q-24 -53 -24 -76q0 -47 36 -70q53 -33 196 -33h69q121 0 228 29q100 28 100 54q0 20 -57 91l73 105q73 -75 73 -173zM582 509l-56 -78l-74 50l-42 -58l-87 58l59 76l73 -48l40 58zM539 384l-56 -76l-80 54
l56 75z" />
    <glyph glyph-name="Q" unicode="Q" horiz-adv-x="1614" 
 />
    <glyph glyph-name="R" unicode="R" horiz-adv-x="1283" 
 />
    <glyph glyph-name="S" unicode="S" horiz-adv-x="970" 
d="M953 856q0 -104 -93 -162q-79 -50 -193 -50h-70q-78 0 -96 20q0 -118 -73 -196q-74 -79 -192 -79t-176 74q-48 60 -48 153q0 75 41 156l76 -27q-27 -70 -27 -108q0 -66 40 -101q38 -33 104 -33q71 0 117 39q49 42 49 111q0 67 -48 132l86 81q50 -106 81 -106q16 0 22 4.5
t23 24.5q154 188 250 188q55 0 91 -32.5t36 -88.5zM872 827q0 41 -69 41q-45 0 -100 -45q-11 -9 -67 -65h49q53 0 107 14q80 19 80 55z" />
    <glyph glyph-name="T" unicode="T" 
d="M774 631q0 -118 -109 -184q-93 -57 -231 -57h-88q-142 0 -191 72l43 82q38 -21 83 -21q63 0 78 60q5 19 5 112q0 135 -20 333l118 45v-385q88 80 167 80q64 0 104.5 -37t40.5 -100zM683 598q0 47 -80 47q-51 0 -113 -52q-10 -8 -76 -73h55q61 0 123 15q91 22 91 63z" />
    <glyph glyph-name="U" unicode="U" horiz-adv-x="1501" 
 />
    <glyph glyph-name="V" unicode="V" 
d="M651 712q0 -110 -93 -218q-86 -101 -196 -139l-82 78q99 39 186 113q81 70 89 115q-33 -15 -75 -15q-124 0 -124 118q0 55 31 117q39 77 99 77q87 0 131 -84q34 -65 34 -162zM552 768q-2 28 -19 51q-19 26 -46 26q-19 0 -34 -17t-15 -37q0 -35 58 -35q36 0 56 12z" />
    <glyph glyph-name="W" unicode="W" horiz-adv-x="2030" 
 />
    <glyph glyph-name="X" unicode="X" 
d="M186 1185h135q15 -2 15 -14v-14q0 -15 -15 -15h-43v-135q0 -15 -14 -15h-28q-15 0 -15 15v135h-35q-15 0 -15 15v14q3 14 15 14zM407 1185h43q19 0 71 -185h7q0 17 50 85l-50 93l15 7h35q8 0 43 -50q19 46 36 50h121q15 -2 15 -14v-14q0 -15 -22 -15v-114q22 0 22 -14v-7
q0 -15 -15 -15h-128q-15 0 -29 50h-14q-14 -50 -29 -50h-100q-16 0 -21 36h-64q0 -36 -15 -36h-35l-15 8q62 179 79 185zM700 1178q0 -14 -50 -86q50 -80 50 -92h7q0 17 14 35v100q-14 17 -14 43h-7zM421 1121q0 -21 -14 -50h36l-15 50h-7zM889 628q0 -240 -500 -240
q-334 0 -334 196q0 59 43 144l85 -26q-25 -54 -25 -77q0 -48 37 -71q54 -34 200 -34h70q123 0 232 30q101 28 101 55q0 20 -57 93l74 106q74 -76 74 -176zM577 892l-62 -84l-76 54l-45 -62l-97 65l62 84l81 -56l44 63z" />
    <glyph glyph-name="Y" unicode="Y" 
d="M804 897l-30 -112q-32 14 -95 14q-51 0 -91 -31q-36 -27 -36 -54q0 -14 15 -19q11 -3 100 -10q117 -10 117 -94q0 -121 -113 -201q-105 -74 -247 -74q-287 0 -287 241q0 90 54 183l91 -31q-37 -58 -37 -121q0 -142 195 -142q51 0 115 17q89 23 133 68q10 10 10 19
q0 16 -20 18q-27 3 -148 13q-78 15 -78 89q0 95 79.5 175.5t174.5 80.5q53 0 98 -29z" />
    <glyph glyph-name="Z" unicode="Z" 
d="M327 1202h5q81 -11 81 -81v-5q-14 -80 -71 -80h-25q-70 18 -70 75v20q0 57 80 71zM282 975h91q10 -1 10 -10v-70h206q10 -2 10 -10v-66q0 -10 -10 -10h-206v-65h282q21 -23 141 -302q94 30 105 30q16 -29 31 -76l-167 -60q-17 17 -161 322h-332q-10 0 -10 10v297
q1 10 10 10zM226 905l6 -10v-56q-136 -97 -136 -261q0 -123 125 -222q73 -50 167 -50q169 0 251 176h5q11 0 36 -76q-114 -176 -287 -176h-25q-224 0 -328 237q-20 51 -20 116v10q0 196 206 312z" />
    <glyph glyph-name="a" unicode="a" 
d="M864 1113q56 0 69 -96v-504q0 -94 -69 -142q-67 42 -78 60v4q23 37 23 83v416q0 8 -18 19h-14q-22 0 -46 -92v-334q-61 -142 -197 -142q-68 0 -155 46l-10 -5h-45q-146 -55 -248 -55q-18 7 -18 14v96q0 9 128 23q55 23 55 41q-18 38 -23 73q0 96 156 184
q133 -33 133 -133v-28q0 -29 -18 -105q44 -18 59 -18q73 14 73 64v275q0 180 216 251q7 5 27 5zM356 1058q61 -30 91 -69v-27q-48 -72 -82 -83q-54 21 -96 69q0 27 68 101zM319 623v-9q6 -41 41 -41h5q40 0 50 54q-9 31 -32 42h-18q-46 -9 -46 -46z" />
    <glyph glyph-name="b" unicode="b" 
d="M905 743q0 -240 -502 -240q-334 0 -334 196q0 59 43 145l85 -27q-25 -54 -25 -77q0 -48 37 -71q54 -34 200 -34h70q124 0 233 30q102 29 102 55q0 20 -58 93l75 107q74 -76 74 -177zM555 347l-75 -99l-102 68l75 100z" />
    <glyph glyph-name="c" unicode="c" horiz-adv-x="958" 
d="M932 799q0 -61 -32 -110q-37 -57 -95 -57q-79 0 -115 55q-30 -53 -85 -53t-70 20q0 -121 -74 -201q-76 -81 -197 -81t-181 76q-49 61 -49 157q0 77 41 160l79 -28q-28 -71 -28 -110q0 -68 41 -104q39 -34 107 -34q72 0 120 40q51 43 51 114q0 69 -50 136l88 82
q33 -65 36 -69q29 -41 69 -41q72 0 72 66v39l72 22v-51q0 -33 19 -55q20 -24 53 -24q44 0 44 42q0 38 -34 70l71 80q47 -52 47 -141z" />
    <glyph glyph-name="d" unicode="d" horiz-adv-x="965" 
d="M749 639q0 -125 -82 -192q-77 -63 -204 -63q-170 0 -243 94l71 131q65 -53 139 -53q94 0 126 6q83 17 83 75q0 39 -62 102q-70 72 -170 124l68 166q274 -167 274 -390z" />
    <glyph glyph-name="e" unicode="e" horiz-adv-x="965" 
d="M772 273q-86 -36 -199 -36q-156 0 -254 61q-117 73 -117 219q0 142 156 257q-77 54 -77 140q0 76 56.5 130t133.5 54q33 0 69.5 -16.5t55.5 -42.5l-29 -74q-46 25 -104 25q-29 0 -58 -14q-34 -16 -34 -42q0 -32 45 -57q40 -23 75 -23q15 0 85 16l92 22v-111
q-358 -75 -358 -256q0 -88 104 -129q74 -30 177 -30q88 0 142 20z" />
    <glyph glyph-name="f" unicode="f" horiz-adv-x="1079" 
 />
    <glyph glyph-name="g" unicode="g" horiz-adv-x="965" 
d="M803 586q0 -166 -83 -257q-86 -96 -250 -96q-136 0 -210 87q-64 74 -64 180q0 85 47 183l88 -32q-7 -13 -17 -55q-12 -47 -12 -71q0 -77 52 -119q47 -39 126 -39q101 0 166 40q81 49 75 143q-35 -30 -92 -30q-66 0 -99 41q-24 30 -24 71q0 59 33 124q41 81 106 81
q76 0 122 -92q36 -74 36 -159zM691 659q-4 22 -20 40q-18 21 -38 21q-16 0 -31 -16.5t-15 -32.5q0 -38 47 -39q45 -1 57 27zM757 1007l-63 -86l-78 55l-46 -63l-98 66l63 86l82 -57l45 64z" />
    <glyph glyph-name="h" unicode="h" horiz-adv-x="961" 
d="M784 575q0 -190 -127 -190q-29 0 -89 28q-29 14 -95 46q-37 -25 -184 -25h-88v160h94q-24 16 -24 71q0 90 100 175l-30 20l68 144q135 -90 239 -195q136 -139 136 -234zM686 557q-1 23 -29 60q-25 33 -48 50v-12q0 -24 -13 -52q-13 -31 -32 -41q7 -11 45.5 -33t49.5 -22
q30 0 27 50zM511 697q0 24 -21 44.5t-45 20.5q-22 0 -48 -26t-26 -48q0 -26 20.5 -45.5t46.5 -19.5q32 0 52.5 21.5t20.5 52.5z" />
    <glyph glyph-name="i" unicode="i" horiz-adv-x="657" 
 />
    <glyph glyph-name="j" unicode="j" horiz-adv-x="961" 
d="M802 313q-117 -43 -234 -43q-387 0 -387 306q0 104 91 198q71 76 180 126q-99 12 -122 12q-27 0 -54 -44q-55 23 -86 42q53 131 124 131q55 0 165 -12.5t165 -12.5q60 0 109 5l-15 -133q-138 0 -282 -88q-155 -96 -155 -209q0 -191 285 -191q96 0 181 24zM604 605
l-74 -98l-100 68l74 98z" />
    <glyph glyph-name="k" unicode="k" horiz-adv-x="961" 
d="M928 1049l-15 -119q-74 -17 -141 -34q-151 -40 -202 -64q-16 -7 -5 -16q95 -72 105 -82q83 -77 83 -141q0 -209 -393 -209q-310 0 -310 180q0 58 40 136l79 -25q-23 -49 -23 -71q0 -45 34 -68q51 -34 186 -34h21q81 0 155 10q126 18 126 59q0 40 -91 111q-99 77 -110 103
q1 27 12 62q12 41 23 47q128 67 426 155z" />
    <glyph glyph-name="l" unicode="l" horiz-adv-x="961" 
d="M762 637q0 -155 -68 -244q-76 -101 -227 -101q-112 0 -172 64t-60 177q0 84 43 173l88 -31q-31 -67 -31 -123q0 -129 147 -129q176 0 176 184v24l-20 436l124 46v-476z" />
    <glyph glyph-name="m" unicode="m" horiz-adv-x="961" 
d="M705 884q0 -36 -31 -90q-35 -60 -68 -60q-24 0 -71 6.5t-71 6.5q-40 0 -54 -17t-14 -58v-398h-92l-17 427q-2 56 23 102q29 52 81 61q0 60 27 113q32 64 87 64q56 0 126 -50q74 -54 74 -107zM597 868q4 21 -31 45q-31 21 -54 21q-20 0 -33 -15t-13 -35q0 -6 1 -13
q114 -12 104 -12q24 0 26 9z" />
    <glyph glyph-name="n" unicode="n" horiz-adv-x="965" 
d="M761 645q0 -141 -85 -223t-226 -82q-121 0 -188 66t-67 186q0 34 15 88t32 82l84 -30q-30 -61 -30 -116q0 -73 47 -111q42 -35 116 -35q84 0 135 39q56 43 56 123q0 73 -51 143l96 79q66 -78 66 -209zM543 931l-73 -97l-100 67l73 98z" />
    <glyph glyph-name="o" unicode="o" horiz-adv-x="1614" 
 />
    <glyph glyph-name="p" unicode="p" horiz-adv-x="965" 
d="M890 858q0 -236 -492 -236q-328 0 -328 192q0 58 43 142l83 -25q-24 -53 -24 -76q0 -47 36 -70q53 -33 196 -33h69q121 0 228 29q100 28 100 54q0 20 -57 91l73 105q73 -75 73 -173zM582 509l-56 -78l-74 50l-42 -58l-87 58l59 76l73 -48l40 58zM539 384l-56 -76l-80 54
l56 75z" />
    <glyph glyph-name="q" unicode="q" horiz-adv-x="1614" 
 />
    <glyph glyph-name="r" unicode="r" horiz-adv-x="1283" 
 />
    <glyph glyph-name="s" unicode="s" horiz-adv-x="970" 
d="M953 856q0 -104 -93 -162q-79 -50 -193 -50h-70q-78 0 -96 20q0 -118 -73 -196q-74 -79 -192 -79t-176 74q-48 60 -48 153q0 75 41 156l76 -27q-27 -70 -27 -108q0 -66 40 -101q38 -33 104 -33q71 0 117 39q49 42 49 111q0 67 -48 132l86 81q50 -106 81 -106q16 0 22 4.5
t23 24.5q154 188 250 188q55 0 91 -32.5t36 -88.5zM872 827q0 41 -69 41q-45 0 -100 -45q-11 -9 -67 -65h49q53 0 107 14q80 19 80 55z" />
    <glyph glyph-name="t" unicode="t" 
d="M774 631q0 -118 -109 -184q-93 -57 -231 -57h-88q-142 0 -191 72l43 82q38 -21 83 -21q63 0 78 60q5 19 5 112q0 135 -20 333l118 45v-385q88 80 167 80q64 0 104.5 -37t40.5 -100zM683 598q0 47 -80 47q-51 0 -113 -52q-10 -8 -76 -73h55q61 0 123 15q91 22 91 63z" />
    <glyph glyph-name="u" unicode="u" horiz-adv-x="1501" 
 />
    <glyph glyph-name="v" unicode="v" 
d="M651 712q0 -110 -93 -218q-86 -101 -196 -139l-82 78q99 39 186 113q81 70 89 115q-33 -15 -75 -15q-124 0 -124 118q0 55 31 117q39 77 99 77q87 0 131 -84q34 -65 34 -162zM552 768q-2 28 -19 51q-19 26 -46 26q-19 0 -34 -17t-15 -37q0 -35 58 -35q36 0 56 12z" />
    <glyph glyph-name="w" unicode="w" horiz-adv-x="2030" 
 />
    <glyph glyph-name="x" unicode="x" 
d="M186 1185h135q15 -2 15 -14v-14q0 -15 -15 -15h-43v-135q0 -15 -14 -15h-28q-15 0 -15 15v135h-35q-15 0 -15 15v14q3 14 15 14zM407 1185h43q19 0 71 -185h7q0 17 50 85l-50 93l15 7h35q8 0 43 -50q19 46 36 50h121q15 -2 15 -14v-14q0 -15 -22 -15v-114q22 0 22 -14v-7
q0 -15 -15 -15h-128q-15 0 -29 50h-14q-14 -50 -29 -50h-100q-16 0 -21 36h-64q0 -36 -15 -36h-35l-15 8q62 179 79 185zM700 1178q0 -14 -50 -86q50 -80 50 -92h7q0 17 14 35v100q-14 17 -14 43h-7zM421 1121q0 -21 -14 -50h36l-15 50h-7zM889 628q0 -240 -500 -240
q-334 0 -334 196q0 59 43 144l85 -26q-25 -54 -25 -77q0 -48 37 -71q54 -34 200 -34h70q123 0 232 30q101 28 101 55q0 20 -57 93l74 106q74 -76 74 -176zM577 892l-62 -84l-76 54l-45 -62l-97 65l62 84l81 -56l44 63z" />
    <glyph glyph-name="y" unicode="y" 
d="M804 897l-30 -112q-32 14 -95 14q-51 0 -91 -31q-36 -27 -36 -54q0 -14 15 -19q11 -3 100 -10q117 -10 117 -94q0 -121 -113 -201q-105 -74 -247 -74q-287 0 -287 241q0 90 54 183l91 -31q-37 -58 -37 -121q0 -142 195 -142q51 0 115 17q89 23 133 68q10 10 10 19
q0 16 -20 18q-27 3 -148 13q-78 15 -78 89q0 95 79.5 175.5t174.5 80.5q53 0 98 -29z" />
    <glyph glyph-name="z" unicode="z" 
d="M327 1202h5q81 -11 81 -81v-5q-14 -80 -71 -80h-25q-70 18 -70 75v20q0 57 80 71zM282 975h91q10 -1 10 -10v-70h206q10 -2 10 -10v-66q0 -10 -10 -10h-206v-65h282q21 -23 141 -302q94 30 105 30q16 -29 31 -76l-167 -60q-17 17 -161 322h-332q-10 0 -10 10v297
q1 10 10 10zM226 905l6 -10v-56q-136 -97 -136 -261q0 -123 125 -222q73 -50 167 -50q169 0 251 176h5q11 0 36 -76q-114 -176 -287 -176h-25q-224 0 -328 237q-20 51 -20 116v10q0 196 206 312z" />
    <glyph glyph-name="cent" unicode="&#xa2;" horiz-adv-x="1256" 
d="M80 1438h1096q80 0 80 -80v-1568q0 -80 -68 -80h-1120q-68 8 -68 68v1592q0 68 80 68z" />
    <glyph glyph-name="sterling" unicode="&#xa3;" horiz-adv-x="1256" 
d="M76 622v-836h1104v836h-1104z" />
    <glyph glyph-name="currency" unicode="&#xa4;" horiz-adv-x="1256" 
d="M66 1326h406v-254h-406v254zM61 966v75h10v-75h-10zM88 966v14h14v-14h-14zM118 966v75h33q10 0 15.5 -2t8.5 -7t3 -11q0 -8 -5 -13.5t-16 -7.5l6 -3q4 -4 8 -10l13 -21h-12l-10 16q-5 6 -7.5 9.5t-5 5.5t-4.5 2h-5h-12v-33h-10zM128 1008h21q7 0 11 1.5t6 4.5t2 7
q0 5 -4 8.5t-12 3.5h-24v-25zM193 966v14h14v-14h-14zM251 966v75h10v-75h-10zM278 966v75h33q10 0 15.5 -2t8.5 -7t3 -11q0 -9 -5 -14.5t-16 -6.5q4 -2 6 -4q4 -3 8 -10l13 -20h-12l-10 15l-7.5 10.5t-4.5 5.5t-5 2h-5h-12v-33h-10zM288 1008h21q7 0 11 1.5t6 4.5t2 7
q0 5 -4 8.5t-12 3.5h-24v-25zM347 966l28 75h11l30 -75h-11l-9 23h-31l-8 -23h-10zM368 997h25l-8 20q-3 10 -5 16q-1 -7 -4 -15zM423 966v75h10l39 -59v59h10v-75h-10l-39 58v-58h-10z" />
    <glyph glyph-name="yen" unicode="&#xa5;" horiz-adv-x="1256" 
d="M472 1326v-85q0 -1 -1 -1h-3q-1 0 -1 2h-16q0 -2 -1 -2t-1 2h-17q0 -2 -1 -2v2h-17q0 -2 -1 -2t-1 2h-16q0 -2 -1 -2t-1 2h-16q0 -2 -1 -2t-1 2h-16q0 -2 -1 -2t-1 2h-17q0 -2 -1 -2v2h-16q0 -2 -1 -2t-1 2h-17q0 -2 -1 -2t-1 2h-15q0 -2 -1 -2t-1 2h-17q0 -2 -1 -2t-1 2
h-16q0 -2 -1 -2v2h-17q0 -2 -1 -2t-1 2h-17q0 -2 -1 -2v2h-16q0 -2 -1 -2t-1 2h-17q0 -2 -1 -2t-1 2h-16v-2q-1 0 -1 2h-17q0 -2 -1 -2t-1 2h-16q0 -2 -1 -2t-1 2h-16q0 -2 -1 -2t-1 2h-17q0 -2 -1 -2t-1 2h-15q0 -2 -1 -2h-2q-1 0 -1 1v85h406zM70 1255v-2h23v2h-23z
M95 1255v-3q0 -1 -1 -1h-6v-6h5v2h-2q-1 0 -1 1t1 1h3q1 0 1 -1v-3h9v10h-2v-7q0 -1 -1 -1v0q-1 0 -1 1v7h-1v-7q0 -1 -1 -1v0q-1 0 -1 1v7h-2zM106 1255v-1q0 -1 1 -1h23v2h-24zM131 1255v-3q0 -1 -1 -1h-6v-6h6v2h-3q-1 0 -1 1t1 1h3q1 0 1 -1v-3h9v10h-2v-7q0 -1 -1 -1v1
v7h-2v-7q0 -1 -1 -1t-1 1v7h-2zM142 1255v-2h24v2h-24zM168 1255v-3q0 -1 -1 -1h-7v-6h6v2h-3q-1 0 -1 1t1 1h4q1 0 1 -1v-3h8v10h-1v-7q0 -1 -1 -1t-1 1v7h-2v-7q0 -1 -1 -1t-1 1v7h-1zM178 1255v-1l1 -1h22q1 0 1 1v1h-24zM204 1255v-3q0 -1 -1 -1h-6v-6h5v2h-3q-1 0 -1 1
t1 1h4q1 0 1 -1v-3h9v10h-1v-7q0 -1 -1 -1t-1 1v7h-3v-7q0 -1 -1 -1t-1 1v7h-1zM215 1255v-2h23v2h-23zM240 1255v-3q0 -1 -1 -1h-6v-6h5v2h-3v1v1h4q1 0 1 -1v-3h10v10h-3v-7q0 -1 -1 -1t-1 1v7h-2v-7v-1q-1 0 -1 1v7h-2zM251 1255v-1q0 -1 1 -1h22q1 0 1 1v1h-24z
M277 1255v-3q0 -1 -1 -1h-7v-6h6v2h-3q-1 0 -1 1l1 1h4q1 0 1 -1v-3h9v10h-2v-7q0 -1 -1 -1t-1 1v7h-2v-7v-1q-1 0 -1 1v7h-2zM288 1255v-2h22v2h-22zM312 1255v-3q0 -1 -1 -1h-6v-6h5v2h-2q-1 0 -1 1t1 1h3q1 0 1 -1v-3h10v10h-2v-7q0 -1 -1 -1t-1 1v7h-1v-7q0 -1 -1 -1
t-1 1v7h-3zM324 1255v-2h23q1 0 1 1v1h-24zM349 1255v-3q0 -1 -1 -1h-6v-6h6v2h-3q-1 0 -1 1t1 1h3q1 0 1 -1v-3h9v10h-2v-7q0 -1 -1 -1v0v1v7h-2v-7q0 -1 -1 -1t-1 1v7h-2zM360 1255v-2h24v2h-24zM386 1255v-3q0 -1 -1 -1h-7v-6h6v2h-3q-1 0 -1 1t1 1h4q1 0 1 -1v-3h8v10
h-1v-7q0 -1 -1 -1t-1 1v7h-2v-7q0 -1 -1 -1t-1 1v7h-1zM396 1255v-2h24v2h-24zM422 1255v-3q0 -1 -1 -1h-6v-6h5v2h-3q-1 0 -1 1t1 1h4q1 0 1 -1v-3h9v10h-2v-7q0 -1 -1 -1v0q-1 0 -1 1v7h-2v-7q0 -1 -1 -1v0q-1 0 -1 1v7h-1zM433 1255v-2h23v2h-23zM458 1255v-3q0 -1 -1 -1
h-6v-6h5v2h-3v1v1h4q1 0 1 -1v-3h9v10h-2v-7q0 -1 -1 -1t-1 1v7h-2v-7v-1q-1 0 -1 1v7h-2zM70 1251v-6h1v3q0 1 1 1h4q1 0 1 -1v-3h9v6h-5v-2h3q1 0 1 -1t-1 -1h-4q-1 0 -1 1v3h-9zM106 1251v-6h1v3q0 1 1 1h4q1 0 1 -1v-3h9v6h-5v-1q0 -1 4 -2v0q0 -1 -1 -1h-5v1v3h-9z
M142 1251v-6h3v3v1h4q1 0 1 -1v-3h9v6h-6v-2h3q1 0 1 -1t-1 -1h-4v1v3h-10zM178 1251v-6h2v3l1 1h4q1 0 1 -1v-3h9v6h-5v-1q0 -1 3 -2v0q0 -1 -1 -1h-3q-1 0 -1 1v3h-10zM215 1251v-6h2v3q0 1 1 1h3q1 0 1 -1v-3h9v6h-5v-2h2q1 0 1 -1t-1 -1h-3q-1 0 -1 1v3h-9zM251 1251v-6
h2v3q0 1 1 1h4v-1v-3h9v6h-5v-2h3v-1v-1h-4q-1 0 -1 1v3h-9zM288 1251v-6h1v3q0 1 1 1h4q1 0 1 -1v-3h8v6h-5v-2h3q1 0 1 -1t-1 -1h-4q-1 0 -1 1v3h-8zM324 1251v-6h1v3q0 1 1 1h4q1 0 1 -1v-3h9v6h-6v-2h3q1 0 1 -1t-1 -1h-4v1v3h-9zM360 1251v-6h2v3q0 1 1 1h3q1 0 1 -1
v-3h9v6h-5v-1q0 -1 3 -2v0q0 -1 -1 -1h-3q-1 0 -1 1v3h-9zM396 1251v-6h2v3q0 1 1 1h3q1 0 1 -1v-3h10v6h-5v-2h2q1 0 1 -1t-1 -1h-3q-1 0 -1 1v3h-10zM433 1251v-6h1v3q0 1 1 1h3q1 0 1 -1v-3h10v6h-6v-1q0 -1 4 -2v0q0 -1 -1 -1h-4q-1 0 -1 1v3h-8zM73 1247v-2h2v2h-2z
M109 1247v-2h2v2h-2zM146 1247v-2h2v2h-2zM182 1247v-2h2v2h-2zM219 1247v-2h1v2h-1zM255 1247v-2h2v2h-2zM291 1247v-2h2v2h-2zM327 1247v-2h2v2h-2zM363 1247v-2h2v2h-2zM400 1247v-2h1v2h-1zM436 1247v-2h2v2h-2z" />
    <glyph glyph-name="brokenbar" unicode="&#xa6;" horiz-adv-x="1256" 
d="M67 1158h2q1 0 1 -2h16q0 2 1 2t1 -2h17q0 2 1 2t1 -2h16q0 2 1 2v-2h16q0 2 1 2t1 -2h17q0 2 1 2t1 -2h16q0 2 1 2t1 -2h16q0 2 1 2t1 -2h17q0 2 1 2t1 -2h15q0 2 1 2t1 -2h17q0 2 1 2t1 -2h16q0 2 1 2t1 -2h16q0 2 1 2t1 -2h17q0 2 1 2t1 -2h16v2q1 0 1 -2h17q0 2 1 2
t1 -2h16q0 2 1 2t1 -2h16v2q1 0 1 -2h17q0 2 1 2t1 -2h17q0 2 1 2v-2h16q0 2 1 2t1 -2h17q0 2 1 2t1 -2h16q0 2 1 2h3q1 0 1 -1v-85h-407v85q0 1 1 1zM70 1153v-2h23v2h-23zM95 1153v-3q0 -1 -1 -1h-6v-6h5v2h-3q-1 0 -1 1v1l1 1h4l1 -1v-4h9v10h-2v-7q0 -1 -1 -1v0v1v7h-2
v-7q0 -1 -1 -1v0q-1 0 -1 1v7h-2zM107 1153v-2h23v2h-23zM131 1153v-3v-1h-7v-6h6v2h-3q-1 0 -1 1v1q0 1 1 1h4v-1v-4h9v10h-1v-7q0 -1 -1 -1t-1 1v7h-2v-7q0 -1 -1 -1t-1 1v7h-2zM142 1153v-2h24v2h-24zM168 1153v-3q0 -1 -1 -1h-6v-6h5v2h-3q-1 0 -1 1v1q0 1 1 1h4l1 -1
v-4h9v10h-2v-7q0 -1 -1 -1t-1 1v7h-1v-7q0 -1 -1 -1h-1v1v7h-2zM178 1153v-1l1 -1h22q1 0 1 1v1h-24zM204 1153v-3q0 -1 -1 -1h-6v-6h5v2h-2q-1 0 -1 1v1q0 1 1 1h3l1 -1v-4h10v10h-2v-7q0 -1 -1 -1t-1 1v7h-2v-7q0 -1 -1 -1t-1 1v7h-2zM216 1153v-2h23v2h-23zM240 1153v-3
q0 -1 -1 -1h-6v-6h6v2h-3q-1 0 -1 1v1q0 1 1 1h3l1 -1v-4h10v10h-3v-7q0 -1 -1 -1v1v7h-2v-7q0 -1 -1 -1t-1 1v7h-2zM252 1153v-1q0 -1 1 -1h22q1 0 1 1v1h-24zM277 1153v-3v-1h-7v-6h6v2h-4q-1 0 -1 1v1l1 1h5v-1v-4h8v10v0v-7q0 -1 -1 -1t-1 1v7h-2v-7q0 -1 -1 -1t-1 1v7
h-2zM288 1153v-2h23v2h-23zM313 1153v-3q0 -1 -1 -1h-6v-6h5v2h-3v1v1v1h4l1 -1v-4h10v10h-2v-7q0 -1 -1 -1t-1 1v7h-2v-7q0 -1 -1 -1v1v7h-3zM324 1153v-2h23q1 0 1 1v1h-24zM350 1153v-3q0 -1 -1 -1h-6v-6h5v2h-2q-1 0 -1 1v1q0 1 1 1h3l1 -1v-4h9v10h-2v-7q0 -1 -1 -1v0
q-1 0 -1 1v7h-1v-7q0 -1 -1 -1h-1q-1 0 -1 1v7h-1zM361 1153v-2h24v2h-24zM386 1153v-3q0 -1 -1 -1h-7v-6h7v2h-3q-1 0 -1 1v1q0 1 1 1h3l1 -1v-4h9v10h-2v-7q0 -1 -1 -1v1v7h-2v-7q0 -1 -1 -1t-1 1v7h-2zM397 1153v-2h24v2h-24zM423 1153v-3q0 -1 -1 -1h-7v-6h6v2h-4
q-1 0 -1 1v1l1 1h5l1 -1v-4h8v10h-1v-7q0 -1 -1 -1v0q-1 0 -1 1v7h-2v-7q0 -1 -1 -1v0q-1 0 -1 1v7h-1zM434 1153v-2h23v2h-23zM459 1153v-3q0 -1 -1 -1h-6v-6h5v2h-3v1v1v1h4l1 -1v-4h9v10h-2v-7q0 -1 -1 -1t-1 1v7h-2v-7q0 -1 -1 -1v1v7h-2zM70 1149v-6h1v4q0 1 1 1h4
l1 -1v-4h9v6h-5v-1h3l1 -1v-1q0 -1 -1 -1h-4q-1 0 -1 1v3h-9zM107 1149v-6h1v4v1h4l1 -1v-4h10v6h-6v-1h3l1 -1v-1q0 -1 -1 -1h-4q-1 0 -1 1v3h-8zM142 1149v-6h3v4q0 1 1 1h3l1 -1v-4h9v6h-5v-1h2l1 -1v-1q0 -1 -1 -1h-3q-1 0 -1 1v3h-10zM178 1149v-6h2v4l1 1h4l1 -1v-4h9
v6h-5v-1h3v-1v-1v-1h-4q-1 0 -1 1v3h-10zM216 1149v-6h1v4q0 1 1 1h4l1 -1v-4h8v6h-5v-1h3l1 -1v-1q0 -1 -1 -1h-4q-1 0 -1 1v3h-8zM252 1149v-6h2v4v1h4l1 -1v-4h9v6h-6v-1h3l1 -1v-1q0 -1 -1 -1h-3q-1 0 -1 1v3h-9zM288 1149v-6h2v4q0 1 1 1h3l1 -1v-4h9v6h-5v-1h3l1 -1
v-1q0 -1 -1 -1h-4q-1 0 -1 1v3h-9zM324 1149v-6h2v4q0 1 1 1h4v-1v-4h10v6h-6v-1h3l1 -1v-1q0 -1 -1 -1h-4q-1 0 -1 1v3h-9zM361 1149v-6h1v4q0 1 1 1h5l1 -1v-4h8v6h-6v-1h3l1 -1v-1q0 -1 -1 -1h-4q-1 0 -1 1v3h-8zM397 1149v-6h2v4q0 1 1 1h3l1 -1v-4h10v6h-6v-1h3l1 -1
v-1q0 -1 -1 -1h-3q-1 0 -1 1v3h-10zM434 1149v-6h1v4q0 1 1 1h3l1 -1v-4h10v6h-6v-1h3l1 -1v-1q0 -1 -1 -1h-4q-1 0 -1 1v3h-8zM73 1145v-2h2v2h-2zM109 1145v-2h2v2h-2zM147 1145v-2h1v2h-1zM182 1145v-2h3v2h-3zM219 1145v-2h1v2h-1zM255 1145v-2h2v2h-2zM292 1145v-2h1v2
h-1zM328 1145v-2h2v2h-2zM364 1145v-2h2v2h-2zM400 1145v-2h2v2h-2zM437 1145v-2h1v2h-1zM287 1212q6 -15 -2 -31q10 7 9 23q-1 15 -15 21q5 -5 8 -13zM262 1226q-3 2 -1 6q2 -7 7 -2q3 -5 6 2q2 -4 -1 -6t-5 1q-3 -3 -6 -1zM265 1174q-5 -2 -13 1q8 0 10 2q-13 8 -13 25
q1 17 9 22q-4 -6 -4 -14q-2 -17 11 -29l-1 24v18q1 0 4 3l2 -3v-18v-24q13 12 11 29q-1 8 -4 14q8 -5 8 -22t-13 -25q4 -2 11 -2q-8 -3 -13 -1l-2 -3zM247 1212q-6 -15 3 -31q-11 7 -10 23q1 15 15 21q-4 -5 -8 -13z" />
    <glyph glyph-name="section" unicode="&#xa7;" horiz-adv-x="2350" 
d="M132 1438h2136q68 -8 68 -68v-712q-8 -64 -64 -64h-2156q-60 10 -60 52v732q0 60 76 60zM112 554h2160q64 -8 64 -64v-716q-10 -64 -64 -64h-2152q-64 9 -64 60v732q0 39 56 52z" />
    <glyph glyph-name="dieresis" unicode="&#xa8;" horiz-adv-x="1014" 
d="M1740 1306q0 -372 44 -372q20 -28 100 -28q120 11 120 72q8 0 8 28v32q0 51 -48 96l-44 -68q40 -38 40 -60v-4q0 -16 -48 -16h-48q-56 0 -56 72v280q-68 -26 -68 -32zM1024 1298q-19 -31 -44 -64q6 0 64 -40q14 25 44 60v4q-5 0 -64 40zM1968 1254l-48 32
q-21 -27 -36 -52q52 -36 60 -36q4 13 24 32h8q2 0 40 -28q4 0 40 52q-8 0 -56 36q-27 -36 -32 -36zM824 1058q37 -20 48 -20q14 21 32 28l92 -16v-8q-90 -56 -184 -56h-68q-156 -20 -156 -84v-16q0 -44 88 -44q36 -5 36 -12q-10 -20 -112 -24h-32q-108 0 -108 80v8
q0 34 20 76q-41 16 -56 16q-28 -58 -28 -104v-20q0 -93 100 -128q37 -8 76 -12q146 0 204 104v28q0 25 -120 40l-4 8q0 7 28 12q58 -8 156 -8q100 0 212 100q8 0 8 -4q10 -96 80 -96h80q120 11 120 72q8 0 8 28v24q0 62 -48 104q0 -5 -40 -60v-8q36 -41 36 -60v-4
q0 -16 -48 -16h-84q-60 4 -60 24v4q0 13 52 16h12v4q0 20 8 76l-24 -4q-34 0 -240 36h-16q-43 0 -72 -84h4zM1576 1050q40 -49 40 -68v-12q0 -52 -180 -156q1 -6 48 -40q196 87 196 212q0 69 -52 124q-44 -44 -52 -60zM1332 858q-21 -35 -28 -36h-4q-11 9 -48 32
q0 -7 -36 -52q4 0 60 -40q23 36 28 36h4q2 0 40 -28h4q4 0 36 48q0 5 -56 40z" />
    <glyph glyph-name="copyright" unicode="&#xa9;" horiz-adv-x="1674" 
d="M616 1027h4q161 0 290 -116q50 -53 62 -76v0v0q-36 17 -76 17q-76 0 -130 -57q-26 -38 -26 -79q0 -56 38 -98q33 -28 76 -28q54 0 92 45q17 25 17 48v8q0 26 -19 60h2q27 0 58 -34q27 -31 36 -85l2 -28q0 -158 -109 -285q-133 -141 -317 -141q-165 0 -293 121
q-44 45 -67 82q-23 39 -35 74q54 36 150 36q128 0 367 -71q43 -11 84 -11h1q119 0 161 99q17 45 17 104q0 46 -3 46h-4q-2 0 -10 -29q-42 -147 -153 -147l-5 1h-3q-60 0 -229 64q-133 43 -217 43h-19q-80 0 -161 -39q-3 21 -3 50v5q0 172 130 305l36 29q118 87 256 87z
M94 -242v357h47v-177l177 177h64l-149 -144l156 -213h-62l-127 181l-59 -57v-124h-47zM447 -242v357h57v-357h-57zM554 -125l43 4q3 -26 14.5 -42.5t35 -27t52.5 -10.5q26 0 46 8t29.5 21.5t9.5 29.5t-9 28t-31 20q-14 6 -61.5 17.5t-66.5 20.5q-25 14 -37 33t-12 43
q0 26 15 48.5t43.5 34.5t62.5 12q38 0 67.5 -12t45.5 -36.5t18 -54.5l-45 -4q-3 34 -23.5 50.5t-60.5 16.5q-41 0 -60 -15.5t-19 -36.5q0 -19 14 -30q12 -12 68 -25t77 -23q30 -13 44 -34t14 -50q0 -27 -15.5 -51t-45 -38t-66.5 -14q-47 0 -78.5 14t-49.5 41.5t-19 61.5z
M874 -242v357h47v-147h186v147h47v-357h-47v168h-186v-168h-47z" />
    <glyph glyph-name="ordfeminine" unicode="&#xaa;" horiz-adv-x="1202" 
d="M472 694v-615h5l236 225v619h-2zM23 -242l74 192h27l79 -192h-29l-23 58h-80l-21 -58h-27zM78 -163h66l-20 53q-10 24 -14 40q-4 -18 -10 -37zM580 -242l74 192h27l79 -192h-29l-23 58h-80l-21 -58h-27zM635 -163h66l-20 53q-10 24 -14 40q-4 -18 -10 -37zM226 -242v192
h85q26 0 39.5 -5.5t21 -18.5t7.5 -29q0 -20 -13 -34.5t-40 -17.5q10 -5 15 -10q11 -10 21 -25l33 -52h-32l-25 40q-11 17 -18.5 26t-13.5 12.5t-11 5.5q-5 1 -15 1h-29v-85h-25zM251 -135h54q19 0 28.5 4t14.5 11.5t5 16.5q0 14 -9.5 22.5t-31.5 8.5h-61v-63zM789 -242v192
h26l101 -151v151h24v-192h-26l-101 151v-151h-24zM474 -242l-74 192h28l50 -139q6 -17 10 -32q4 16 10 32l52 139h26l-75 -192h-27zM993 -242v192h66q22 0 35 -3q16 -4 28 -13q15 -13 22.5 -33t7.5 -45q0 -23 -5 -40t-13 -28t-17.5 -17t-23.5 -9.5t-31 -3.5h-69zM1018 -219
h41q19 0 30 3.5t18 9.5q9 9 14 24t5 38q0 30 -10 46t-24 22q-11 3 -34 3h-40v-146z" />
    <glyph glyph-name="guillemotleft" unicode="&#xab;" horiz-adv-x="1202" 
d="M1060 923v-844h-588l240 224v620h348z" />
    <glyph glyph-name="logicalnot" unicode="&#xac;" horiz-adv-x="1202" 
d="M712 923q-239 -226 -240 -232v-612h-344v844h584z" />
    <glyph glyph-name="registered" unicode="&#xae;" horiz-adv-x="1674" 
d="M40 -242l120 312h44l128 -312h-47l-36 95h-131l-34 -95h-44zM130 -114h106l-33 87q-15 39 -22 64q-6 -30 -17 -59zM662 -242l120 312h44l128 -312h-47l-36 95h-131l-34 -95h-44zM752 -114h106l-33 87q-15 39 -22 64q-6 -30 -17 -59zM372 -242v312h138q41 0 62.5 -8.5
t34.5 -30t13 -47.5q0 -33 -21.5 -55t-65.5 -29q16 -7 24 -15q19 -17 35 -42l54 -85h-52l-41 65q-18 28 -29.5 43t-20.5 21t-19 9q-7 1 -23 1h-48v-139h-41zM413 -68h89q27 0 43 5.5t24.5 18.5t8.5 28q0 23 -16 37t-50 14h-99v-103zM953 -140l37 3q3 -23 13 -37t30.5 -23.5
t46.5 -9.5q22 0 40 7t26 18.5t8 26.5q0 14 -7.5 24.5t-27.5 17.5q-12 5 -53.5 15t-58.5 19q-22 11 -32 28t-10 37q0 23 12.5 43t37.5 30.5t56 10.5q33 0 58.5 -11t39.5 -32t15 -47l-38 -3q-3 28 -21 43t-52 15q-36 0 -53 -13.5t-17 -32.5q0 -16 12 -26q12 -11 60.5 -22
t66.5 -19q26 -12 39 -30.5t13 -43.5q0 -24 -14 -45.5t-40 -33t-58 -11.5q-42 0 -69.5 11.5t-43 35.5t-16.5 55z" />
    <glyph glyph-name="macron" unicode="&#xaf;" horiz-adv-x="1674" 
d="M630 1024q6 -3 252 -480l-8 -4q-192 66 -351 66h-98q0 9 201 418h4zM378 503h54q261 0 521 -106l134 -244l-8 -4h-871l-8 4q167 350 178 350z" />
    <glyph glyph-name="degree" unicode="&#xb0;" horiz-adv-x="1674" 
d="M492 575h8q265 0 548 -159h-4q-330 132 -813 132v7q170 20 261 20z" />
    <glyph glyph-name="plusminus" unicode="&#xb1;" horiz-adv-x="1014" 
d="M1034 -242v228h36v-228h-36zM-58 -242l88 228h32l93 -228h-34l-27 69h-95l-25 -69h-32zM8 -148h77l-24 63q-11 29 -16 47q-4 -22 -12 -43zM622 -242l88 228h32l93 -228h-34l-27 69h-95l-25 -69h-32zM688 -148h77l-24 63q-11 29 -16 47q-4 -22 -12 -43zM196 -242v228h31
l120 -179v179h29v-228h-31l-120 179v-179h-29zM419 -242v28l117 146q13 16 24 27h-127v27h163v-27l-128 -158l-14 -16h146v-27h-181zM862 -242v228h30v-201h113v-27h-143z" />
    <glyph glyph-name="uni00B2" unicode="&#xb2;" horiz-adv-x="1014" 
d="M406 765q117 0 406 -137q24 -9 112 -30q0 -237 -162 -310q-15 -5 -36 -5q-131 0 -497 168q-61 22 -71 23v48q0 175 177 233q39 10 71 10z" />
    <glyph glyph-name="uni00B3" unicode="&#xb3;" horiz-adv-x="1014" 
d="M427 892q99 0 390 -137q91 -36 153 -36h50q11 0 82 21q-73 -102 -173 -102h-10q-94 0 -396 137q-89 21 -132 21q-98 0 -188 -77h-5q69 173 229 173z" />
    <glyph glyph-name="acute" unicode="&#xb4;" horiz-adv-x="1014" 
d="M127 440q111 0 401 -137q95 -35 152 -35h36q30 0 91 20h5q-71 -101 -172 -101h-10q-100 0 -386 132q-92 25 -147 25q-94 0 -188 -81h-5q76 177 223 177z" />
    <glyph glyph-name="mu" unicode="&#xb5;" horiz-adv-x="1180" 
d="M113 -242v248h49l59 -176q8 -24 12 -37q4 14 13 40l60 173h44v-248h-32v208l-72 -208h-29l-72 211v-211h-32zM372 -242l96 248h35l102 -248h-38l-28 75h-105l-27 -75h-35zM444 -140h84l-26 69q-12 31 -17 51q-5 -24 -14 -47zM639 -242v248h32v-123l123 123h45l-104 -100
l109 -148h-43l-89 126l-41 -40v-86h-32zM1041 6h32v-141q0 -36 -8.5 -58t-30 -35.5t-56.5 -13.5t-56.5 12t-31 34.5t-9.5 60.5v141h32v-141q0 -31 6 -46t20.5 -23.5t35.5 -8.5q35 0 50.5 16.5t15.5 61.5v141zM1036 913q-145 -39 -147 -79q0 -17 54 -100q26 -72 -249 -203
q-165 -75 -473 -158l-73 -16q-21 67 -23 121q154 34 360 89t327 126q44 36 1 88.5t21 83t202 48.5z" />
    <glyph glyph-name="paragraph" unicode="&#xb6;" horiz-adv-x="1180" 
d="M525 921h29q107 0 236 -77q-30 -32 -30 -51q0 -11 17 -62v-12q0 -95 -651 -150q5 106 129 243q119 107 270 109zM1036 913q-86 -33 -82 -62t86 -120q17 -21 17 -45v-4q0 -142 -676 -470q-71 -31 -94 -38q-95 71 -139 183q494 131 695 259q107 72 87 111q-52 84 -50 107
q8 44 156 79z" />
    <glyph glyph-name="periodcentered" unicode="&#xb7;" horiz-adv-x="1180" 
d="M938 531q8 -13 8 -38q-2 -203 -191 -338q-48 -37 -106 -54t-116 -12q-135 3 -246 85q340 145 651 357zM1036 913q-269 -52 -227 -113q38 -49 24 -82q-19 -37 -106 -77q-159 -74 -602 -163q-4 48 1 91q380 35 573 98q50 19 65 48.5t-3 54.5t-8 66.5t283 76.5z" />
    <glyph glyph-name="periodcentered" unicode="&#x2219;" horiz-adv-x="1180" 
d="M938 531q8 -13 8 -38q-2 -203 -191 -338q-48 -37 -106 -54t-116 -12q-135 3 -246 85q340 145 651 357zM1036 913q-269 -52 -227 -113q38 -49 24 -82q-19 -37 -106 -77q-159 -74 -602 -163q-4 48 1 91q380 35 573 98q50 19 65 48.5t-3 54.5t-8 66.5t283 76.5z" />
    <glyph glyph-name="cedilla" unicode="&#xb8;" horiz-adv-x="1256" 
d="M66 1326h406v-254h-406v254zM501 1164v75h10v-75h-10zM528 1164v14h14v-14h-14zM558 1164v75h33q10 0 15.5 -2t8.5 -7t3 -11q0 -8 -5 -13.5t-16 -7.5l6 -3q4 -4 8 -10l13 -21h-12l-10 16q-5 6 -7.5 9.5t-5 5.5t-4.5 2h-5h-12v-33h-10zM568 1206h21q7 0 11 1.5t6 4.5t2 7
q0 5 -4 8.5t-12 3.5h-24v-25zM633 1164v14h14v-14h-14zM691 1164v75h10v-75h-10zM718 1164v75h33q10 0 15.5 -2t8.5 -7t3 -11q0 -9 -5 -14.5t-16 -6.5q4 -2 6 -4q4 -3 8 -10l13 -20h-12l-10 15l-7.5 10.5t-4.5 5.5t-5 2h-5h-12v-33h-10zM728 1206h21q7 0 11 1.5t6 4.5t2 7
q0 5 -4 8.5t-12 3.5h-24v-25zM787 1164l28 75h11l30 -75h-11l-9 23h-31l-8 -23h-10zM808 1195h25l-8 20q-3 10 -5 16q-1 -7 -4 -15zM863 1164v75h10l39 -59v59h10v-75h-10l-39 58v-58h-10z" />
    <glyph glyph-name="dotlessi" unicode="&#x131;" horiz-adv-x="635" 
d="M57 1430h578v-95h-435q-107 2 -107 -83v-1070q-2 -98 82 -100h460v-78h-578q-57 0 -57 57v1312q0 57 57 57z" />
    <glyph glyph-name="circumflex" unicode="&#x2c6;" horiz-adv-x="2858" 
d="M43 1437h2772q43 -6 43 -44v-1627q0 -46 -68 -46h-2722q-68 0 -68 46v1627q5 44 43 44zM122 1369q-54 -3 -54 -59v-1448q0 -62 71 -71h2574q77 0 77 81v1416q0 81 -84 81h-2584z" />
    <glyph glyph-name="caron" unicode="&#x2c7;" horiz-adv-x="1202" 
d="M472 694v-615h5l236 225v619h-2zM23 -248l74 192h27l79 -192h-29l-23 58h-80l-21 -58h-27zM78 -169h66l-20 53q-10 24 -14 40q-4 -18 -10 -37zM580 -248l74 192h27l79 -192h-29l-23 58h-80l-21 -58h-27zM635 -169h66l-20 53q-10 24 -14 40q-4 -18 -10 -37zM226 -248v191
h85q25 0 38.5 -5.5t21 -18.5t7.5 -29q0 -20 -13 -34t-40 -17q10 -5 15 -10q11 -10 21 -25l33 -52h-32l-25 40q-11 17 -18 26t-13 12.5t-11 5.5q-5 1 -15 1h-29v-85h-25zM251 -142h54q18 0 27.5 4t14.5 11.5t5 16.5q0 14 -9.5 22.5t-30.5 8.5h-61v-63zM789 -248v192h26
l101 -151v151h24v-192h-26l-101 151v-151h-24zM474 -249l-74 192h28l50 -139q6 -17 10 -32q4 16 10 32l52 139h26l-75 -192h-27zM993 -247v191h66q22 0 34 -3q16 -4 28 -13q15 -13 22.5 -33t7.5 -45q0 -22 -5 -39t-13 -28t-17.5 -17t-23 -9.5t-30.5 -3.5h-69zM1018 -224h41
q19 0 29.5 3.5t17.5 9.5q9 9 14 24t5 37q0 30 -10 46t-24 22q-10 3 -33 3h-40v-145z" />
    <glyph glyph-name="uni02C9" unicode="&#x2c9;" horiz-adv-x="1256" 
d="M80 1438h1096q80 0 80 -80v-1568q0 -80 -68 -80h-1120q-68 8 -68 68v1592q0 68 80 68z" />
    <glyph glyph-name="breve" unicode="&#x2d8;" horiz-adv-x="2350" 
d="M132 1438h2136q68 -8 68 -68v-712q-8 -64 -64 -64h-2156q-60 10 -60 52v732q0 60 76 60zM112 554h2160q64 -8 64 -64v-716q-10 -64 -64 -64h-2152q-64 9 -64 60v732q0 39 56 52z" />
    <glyph glyph-name="dotaccent" unicode="&#x2d9;" horiz-adv-x="1674" 
d="M70 -242l120 312h44l128 -312h-47l-36 95h-131l-34 -95h-44zM160 -114h106l-33 87q-15 39 -22 64q-6 -30 -17 -59zM692 -242l120 312h44l128 -312h-47l-36 95h-131l-34 -95h-44zM782 -114h106l-33 87q-15 39 -22 64q-6 -30 -17 -59zM402 -243v313h138q42 0 63.5 -8.5
t34.5 -30t13 -47.5q0 -33 -21.5 -55.5t-65.5 -29.5q16 -7 24 -15q19 -17 35 -42l54 -85h-52l-41 65q-18 28 -30 43t-21 21t-19 9q-7 1 -23 1h-48v-139h-41zM443 -68h89q28 0 44 5.5t24.5 18.5t8.5 28q0 23 -16 37t-51 14h-99v-103zM983 -141l38 3q3 -23 13 -37.5t31 -24
t47 -9.5q23 0 41 7t26.5 19t8.5 27q0 14 -8 25t-28 18q-12 5 -54.5 15t-59.5 19q-22 12 -32.5 29t-10.5 38q0 23 13 43.5t38.5 31t56.5 10.5q34 0 60 -11t40 -32.5t15 -48.5l-39 -3q-3 29 -21 44t-53 15q-37 0 -54 -13.5t-17 -32.5q0 -17 12 -27q12 -11 61.5 -22.5
t67.5 -19.5q27 -12 40 -31t13 -44q0 -24 -14 -46t-40.5 -34t-59.5 -12q-42 0 -70 12t-44 36.5t-17 55.5z" />
    <glyph glyph-name="ring" unicode="&#x2da;" horiz-adv-x="1014" 
d="M1034 -244v228h36v-228h-36zM-58 -244l88 228h32l93 -228h-34l-27 69h-95l-25 -69h-32zM8 -150h77l-24 63q-11 29 -16 47q-4 -22 -12 -43zM622 -244l88 228h32l93 -228h-34l-27 69h-95l-25 -69h-32zM688 -150h77l-24 63q-11 29 -16 47q-4 -22 -12 -43zM196 -244v228h31
l120 -179v179h29v-228h-31l-120 179v-179h-29zM419 -244v28l117 146q13 16 24 27h-127v27h163v-27l-128 -158l-14 -16h146v-27h-181zM862 -244v228h30v-201h113v-27h-143z" />
    <glyph glyph-name="ogonek" unicode="&#x2db;" horiz-adv-x="1180" 
d="M113 -242v248h49l59 -176q8 -24 12 -37q4 14 13 40l60 173h44v-248h-32v208l-72 -208h-29l-72 211v-211h-32zM372 -242l96 248h35l102 -248h-38l-28 75h-105l-27 -75h-35zM444 -140h84l-26 69q-12 31 -17 51q-5 -24 -14 -47zM639 -242v248h32v-123l123 123h45l-104 -100
l109 -148h-43l-89 126l-41 -40v-86h-32zM1041 6h32v-141q0 -36 -8.5 -58t-30 -35.5t-56.5 -13.5t-56.5 12t-31 34.5t-9.5 60.5v141h32v-141q0 -31 6 -46t20.5 -23.5t35.5 -8.5q35 0 50.5 16.5t15.5 61.5v141zM1036 913q-145 -39 -147 -79q0 -17 54 -100q26 -72 -249 -203
q-165 -75 -473 -158l-73 -16q-21 67 -23 121q154 34 360 89t327 126q44 36 1 88.5t21 83t202 48.5z" />
  </font>
</defs>
</svg>
